<?xml version="1.0" encoding="utf-8"?>
<!-- Generator: Adobe Illustrator 26.0.0, SVG Export Plug-In . SVG Version: 6.00 Build 0)  -->
<svg version="1.1" id="Layer_1" xmlns="http://www.w3.org/2000/svg" xmlns:xlink="http://www.w3.org/1999/xlink" x="0px" y="0px"
	 viewBox="0 0 576 288" style="enable-background:new 0 0 576 288;" xml:space="preserve">
<style type="text/css">
	.st0{fill:none;stroke:#135AAE;stroke-miterlimit:10;}
</style>
<g>
	<g>
		<g>
			<g>
				<polygon class="st0" points="417.4,204.8 417.5,204.9 417.4,204.9 				"/>
				<polygon class="st0" points="402,204.9 402.3,204.7 402.3,205.1 				"/>
				<polygon class="st0" points="424.7,191.7 425.3,191.3 425.3,192 				"/>
				<polygon class="st0" points="394.1,190.9 395.4,191.7 394.1,192.4 				"/>
				<polygon class="st0" points="379.2,218.1 379.3,218 379.3,218.2 				"/>
				<polygon class="st0" points="416.9,177.5 418.5,178.4 416.9,179.3 				"/>
				<polygon class="st0" points="400.8,178.4 402.9,177.2 402.9,179.6 				"/>
				<polygon class="st0" points="378.1,191.7 379.9,190.6 379.9,192.7 				"/>
				<polygon class="st0" points="371.3,204.2 372.4,204.9 371.3,205.5 				"/>
				<polygon class="st0" points="440.3,191.6 440.5,191.7 440.3,191.8 				"/>
				<polygon class="st0" points="439.8,164.3 441.4,165.2 439.8,166.1 				"/>
				<polygon class="st0" points="423.5,165.2 425.9,163.9 425.9,166.6 				"/>
				<polygon class="st0" points="393.4,163.1 397,165.2 393.4,167.3 				"/>
				<polygon class="st0" points="376.5,165.2 380.7,162.8 380.7,167.7 				"/>
				<polygon class="st0" points="370.6,176.6 373.8,178.4 370.6,180.3 				"/>
				<polygon class="st0" points="355.1,204.9 357,203.8 357,206 				"/>
				<polygon class="st0" points="348.3,217.3 349.7,218.1 348.3,218.9 				"/>
				<polygon class="st0" points="356.2,231.3 356.5,231.2 356.5,231.4 				"/>
				<polygon class="st0" points="447.7,178.4 448.2,178.2 448.2,178.7 				"/>
				<polygon class="st0" points="446.6,152 448.7,150.8 448.7,153.2 				"/>
				<polygon class="st0" points="416.2,149.7 420.1,152 416.2,154.2 				"/>
				<polygon class="st0" points="399,152 403.8,149.3 403.8,154.7 				"/>
				<polygon class="st0" points="369.6,148.5 375.7,152 369.6,155.5 				"/>
				<polygon class="st0" points="353.8,178.4 357.7,176.2 357.7,180.7 				"/>
				<polygon class="st0" points="347.7,189.8 350.9,191.7 347.7,193.5 				"/>
				<polygon class="st0" points="331.9,218.1 334.3,216.7 334.3,219.5 				"/>
				<polygon class="st0" points="463.3,178.4 463.3,178.4 463.3,178.4 				"/>
				<polygon class="st0" points="439.2,136.8 442.7,138.8 439.2,140.8 				"/>
				<polygon class="st0" points="422,138.8 426.6,136.1 426.6,141.4 				"/>
				<polygon class="st0" points="392.4,135.1 398.8,138.8 392.4,142.4 				"/>
				<polygon class="st0" points="374.6,138.8 381.6,134.7 381.6,142.8 				"/>
				<polygon class="st0" points="351.8,152 358.7,148 358.7,156 				"/>
				<polygon class="st0" points="346.8,161.9 352.6,165.2 346.8,168.6 				"/>
				<polygon class="st0" points="330.6,191.7 334.9,189.2 334.9,194.1 				"/>
				<polygon class="st0" points="324.5,202.5 328.6,204.9 324.5,207.2 				"/>
				<polygon class="st0" points="325.1,230.1 327.3,231.3 325.1,232.6 				"/>
				<polygon class="st0" points="333,244.5 333.7,244.1 333.7,244.9 				"/>
				<polygon class="st0" points="470.7,165.2 471,165 471,165.4 				"/>
				<polygon class="st0" points="462.8,151.3 464.1,152 462.8,152.7 				"/>
				<polygon class="st0" points="462.4,124 465.1,125.5 462.4,127.1 				"/>
				<polygon class="st0" points="445.5,125.5 449.2,123.4 449.2,127.7 				"/>
				<polygon class="st0" points="415.4,122.1 421.5,125.5 415.4,129 				"/>
				<polygon class="st0" points="397.5,125.5 404.5,121.5 404.5,129.6 				"/>
				<polygon class="st0" points="368.8,120.7 377.3,125.5 368.8,130.4 				"/>
				<polygon class="st0" points="350.4,125.5 359.4,120.3 359.4,130.8 				"/>
				<polygon class="st0" points="346,133.9 354.3,138.8 346,143.6 				"/>
				<polygon class="st0" points="329,165.2 335.8,161.3 335.8,169.1 				"/>
				<polygon class="st0" points="323.8,174.9 329.9,178.4 323.8,182 				"/>
				<polygon class="st0" points="306.8,204.9 312.5,201.6 312.5,208.1 				"/>
				<polygon class="st0" points="301.1,214.9 306.6,218.1 301.1,221.3 				"/>
				<polygon class="st0" points="308.1,231.3 311.8,229.2 311.8,233.4 				"/>
				<polygon class="st0" points="325.7,257.5 326.2,257.8 325.7,258.1 				"/>
				<polygon class="st0" points="469.8,138.8 471.4,137.8 471.4,139.7 				"/>
				<polygon class="st0" points="469,112.3 471.9,110.7 471.9,114 				"/>
				<polygon class="st0" points="438.6,109.4 443.8,112.3 438.6,115.3 				"/>
				<polygon class="st0" points="420.9,112.3 427.2,108.7 427.2,116 				"/>
				<polygon class="st0" points="391.8,107.5 400.1,112.3 391.8,117.1 				"/>
				<polygon class="st0" points="373.3,112.3 382.3,107.1 382.3,117.5 				"/>
				<polygon class="st0" points="345.5,106.6 355.3,112.3 345.5,118 				"/>
				<polygon class="st0" points="327.4,138.8 336.5,133.5 336.5,144 				"/>
				<polygon class="st0" points="323,147 331.6,152 323,157 				"/>
				<polygon class="st0" points="305.5,178.4 313.1,174 313.1,182.8 				"/>
				<polygon class="st0" points="300.5,187.4 307.9,191.7 300.5,195.9 				"/>
				<polygon class="st0" points="282.7,218.1 290.2,213.7 290.2,222.5 				"/>
				<polygon class="st0" points="301.8,242.5 305.3,244.5 301.8,246.5 				"/>
				<polygon class="st0" points="309.4,257.8 311.2,256.8 311.2,258.8 				"/>
				<polygon class="st0" points="485.9,138.3 486.7,138.8 485.9,139.2 				"/>
				<polygon class="st0" points="461.9,96.8 465.9,99.1 461.9,101.4 				"/>
				<polygon class="st0" points="444.6,99.1 449.7,96.1 449.7,102.1 				"/>
				<polygon class="st0" points="415,94.8 422.5,99.1 415,103.4 				"/>
				<polygon class="st0" points="396.5,99.1 405,94.2 405,104 				"/>
				<polygon class="st0" points="368.4,93.5 378.1,99.1 368.4,104.7 				"/>
				<polygon class="st0" points="349.7,99.1 359.7,93.3 359.7,104.9 				"/>
				<polygon class="st0" points="326.6,112.3 336.9,106.3 336.9,118.3 				"/>
				<polygon class="st0" points="322.5,119.7 332.6,125.5 322.5,131.4 				"/>
				<polygon class="st0" points="304.1,152 313.8,146.4 313.8,157.6 				"/>
				<polygon class="st0" points="299.8,159.7 309.3,165.2 299.8,170.7 				"/>
				<polygon class="st0" points="281.5,191.7 290.8,186.3 290.8,197.1 				"/>
				<polygon class="st0" points="276.9,199.3 286.5,204.9 276.9,210.4 				"/>
				<polygon class="st0" points="277.5,226.9 285.1,231.3 277.5,235.7 				"/>
				<polygon class="st0" points="284.1,244.5 289.5,241.5 289.5,247.6 				"/>
				<polygon class="st0" points="302.4,270.1 304,271 302.4,271.9 				"/>
				<polygon class="st0" points="310.4,284.2 310.7,284 310.7,284.4 				"/>
				<polygon class="st0" points="493.1,125.5 494.1,125 494.1,126.1 				"/>
				<polygon class="st0" points="485.5,111.2 487.5,112.3 485.5,113.5 				"/>
				<polygon class="st0" points="485.1,84.1 488.2,85.9 485.1,87.6 				"/>
				<polygon class="st0" points="468.2,85.9 472.2,83.5 472.2,88.2 				"/>
				<polygon class="st0" points="438.3,82.3 444.5,85.9 438.3,89.5 				"/>
				<polygon class="st0" points="420.1,85.9 427.6,81.6 427.6,90.2 				"/>
				<polygon class="st0" points="391.5,80.6 400.6,85.9 391.5,91.2 				"/>
				<polygon class="st0" points="372.8,85.9 382.5,80.3 382.5,91.5 				"/>
				<polygon class="st0" points="345.3,79.9 355.7,85.9 345.3,91.9 				"/>
				<polygon class="st0" points="326.5,85.9 337,79.8 337,92 				"/>
				<polygon class="st0" points="322.3,92.9 333,99.1 322.3,105.3 				"/>
				<polygon class="st0" points="303.4,125.5 314.2,119.3 314.2,131.8 				"/>
				<polygon class="st0" points="299.3,132.5 310.2,138.8 299.3,145 				"/>
				<polygon class="st0" points="280.3,165.2 291.4,158.8 291.4,171.6 				"/>
				<polygon class="st0" points="276.3,171.9 287.6,178.4 276.3,185 				"/>
				<polygon class="st0" points="257.1,204.9 268.6,198.2 268.6,211.6 				"/>
				<polygon class="st0" points="253.2,211.3 265,218.1 253.2,224.9 				"/>
				<polygon class="st0" points="258.3,231.3 268,225.7 268,236.9 				"/>
				<polygon class="st0" points="278.4,254.8 283.4,257.8 278.4,260.7 				"/>
				<polygon class="st0" points="285.7,271 288.7,269.2 288.7,272.7 				"/>
				<polygon class="st0" points="508.9,125.3 509.3,125.5 508.9,125.8 				"/>
				<polygon class="st0" points="492.4,99.1 494.5,97.9 494.5,100.3 				"/>
				<polygon class="st0" points="491.7,72.7 494.8,70.9 494.8,74.4 				"/>
				<polygon class="st0" points="461.5,69.7 466.7,72.7 461.5,75.6 				"/>
				<polygon class="st0" points="443.9,72.7 450,69.1 450,76.2 				"/>
				<polygon class="st0" points="414.7,67.9 423,72.7 414.7,77.4 				"/>
				<polygon class="st0" points="396.1,72.7 405.2,67.4 405.2,77.9 				"/>
				<polygon class="st0" points="368.3,66.9 378.3,72.7 368.3,78.5 				"/>
				<polygon class="st0" points="349.6,72.7 359.8,66.8 359.8,78.6 				"/>
				<polygon class="st0" points="322.4,66.7 332.8,72.7 322.4,78.7 				"/>
				<polygon class="st0" points="303.3,99.1 314.2,92.8 314.2,105.4 				"/>
				<polygon class="st0" points="299.2,105.9 310.4,112.3 299.2,118.8 				"/>
				<polygon class="st0" points="279.8,138.8 291.6,131.9 291.6,145.6 				"/>
				<polygon class="st0" points="276,144.9 288.3,152 276,159.1 				"/>
				<polygon class="st0" points="256.1,178.4 269.1,170.9 269.1,185.9 				"/>
				<polygon class="st0" points="252.8,184 266,191.7 252.8,199.3 				"/>
				<polygon class="st0" points="232.8,218.1 246.4,210.2 246.4,226 				"/>
				<polygon class="st0" points="254,239.2 263.4,244.5 254,249.9 				"/>
				<polygon class="st0" points="260.2,257.8 267.1,253.7 267.1,261.8 				"/>
				<polygon class="st0" points="279.2,282.6 281.9,284.2 279.2,285.8 				"/>
				<polygon class="st0" points="516.3,112.3 516.9,112 516.9,112.7 				"/>
				<polygon class="st0" points="508.6,98.3 510,99.1 508.6,99.9 				"/>
				<polygon class="st0" points="484.8,57.1 488.9,59.4 484.8,61.8 				"/>
				<polygon class="st0" points="467.5,59.4 472.6,56.5 472.6,62.4 				"/>
				<polygon class="st0" points="438,55.3 445.1,59.4 438,63.5 				"/>
				<polygon class="st0" points="419.7,59.4 427.8,54.8 427.8,64.1 				"/>
				<polygon class="st0" points="391.5,54.1 400.7,59.4 391.5,64.8 				"/>
				<polygon class="st0" points="372.8,59.4 382.5,53.9 382.5,65 				"/>
				<polygon class="st0" points="345.5,53.8 355.2,59.4 345.5,65 				"/>
				<polygon class="st0" points="327.1,59.4 336.7,53.9 336.7,65 				"/>
				<polygon class="st0" points="303.7,72.7 314,66.7 314,78.6 				"/>
				<polygon class="st0" points="299.4,79.7 310.1,85.9 299.4,92.1 				"/>
				<polygon class="st0" points="279.9,112.3 291.6,105.6 291.6,119.1 				"/>
				<polygon class="st0" points="276,118.5 288.2,125.5 276,132.6 				"/>
				<polygon class="st0" points="255.7,152 269.3,144.1 269.3,159.9 				"/>
				<polygon class="st0" points="252.4,157 266.6,165.2 252.4,173.4 				"/>
				<polygon class="st0" points="232,191.7 246.8,183.1 246.8,200.2 				"/>
				<polygon class="st0" points="229.2,196.1 244.4,204.9 229.2,213.7 				"/>
				<polygon class="st0" points="229.7,223.5 243.3,231.3 229.7,239.1 				"/>
				<polygon class="st0" points="234.4,244.5 245.6,238 245.6,251 				"/>
				<polygon class="st0" points="255,267.3 261.4,271 255,274.6 				"/>
				<polygon class="st0" points="262,284.2 266.2,281.8 266.2,286.6 				"/>
				<polygon class="st0" points="531.9,112.2 532.1,112.3 531.9,112.4 				"/>
				<polygon class="st0" points="515.7,85.9 517.2,85 517.2,86.8 				"/>
				<polygon class="st0" points="508.3,71.3 510.6,72.7 508.3,74 				"/>
				<polygon class="st0" points="508,44.4 511.2,46.2 508,48.1 				"/>
				<polygon class="st0" points="491.1,46.2 495.1,43.9 495.1,48.6 				"/>
				<polygon class="st0" points="461.3,42.8 467.2,46.2 461.3,49.6 				"/>
				<polygon class="st0" points="443.5,46.2 450.2,42.3 450.2,50.1 				"/>
				<polygon class="st0" points="414.7,41.5 422.9,46.2 414.7,51 				"/>
				<polygon class="st0" points="396.4,46.2 405.1,41.2 405.1,51.2 				"/>
				<polygon class="st0" points="368.7,41 377.6,46.2 368.7,51.4 				"/>
				<polygon class="st0" points="350.5,46.2 359.3,41.1 359.3,51.3 				"/>
				<polygon class="st0" points="323,41.3 331.6,46.2 323,51.2 				"/>
				<polygon class="st0" points="305.1,46.2 313.3,41.5 313.3,51 				"/>
				<polygon class="st0" points="299.9,54.1 309.1,59.4 299.9,64.8 				"/>
				<polygon class="st0" points="280.4,85.9 291.3,79.6 291.3,92.2 				"/>
				<polygon class="st0" points="276.2,92.5 287.7,99.1 276.2,105.7 				"/>
				<polygon class="st0" points="256.2,125.5 269.1,118.1 269.1,133 				"/>
				<polygon class="st0" points="252.6,130.8 266.4,138.8 252.6,146.7 				"/>
				<polygon class="st0" points="231.6,165.2 247,156.3 247,174.1 				"/>
				<polygon class="st0" points="228.9,169.2 244.9,178.4 228.9,187.7 				"/>
				<polygon class="st0" points="208,204.9 224.5,195.4 224.5,214.4 				"/>
				<polygon class="st0" points="205.8,208.5 222.4,218.1 205.8,227.7 				"/>
				<polygon class="st0" points="208.8,231.3 224.1,222.5 224.1,240.1 				"/>
				<polygon class="st0" points="230.7,251.6 241.4,257.8 230.7,264 				"/>
				<polygon class="st0" points="236.5,271 244.6,266.3 244.6,275.7 				"/>
				<polygon class="st0" points="539.3,99.1 539.7,98.9 539.7,99.3 				"/>
				<polygon class="st0" points="531.6,85.3 532.6,85.9 531.6,86.4 				"/>
				<polygon class="st0" points="515,59.4 517.5,58 517.5,60.9 				"/>
				<polygon class="st0" points="514.6,33 517.7,31.2 517.7,34.8 				"/>
				<polygon class="st0" points="484.6,30.3 489.3,33 484.6,35.7 				"/>
				<polygon class="st0" points="467.3,33 472.7,29.9 472.7,36.1 				"/>
				<polygon class="st0" points="438.1,29.1 444.9,33 438.1,36.9 				"/>
				<polygon class="st0" points="420.2,33 427.5,28.8 427.5,37.2 				"/>
				<polygon class="st0" points="392,28.5 399.7,33 392,37.5 				"/>
				<polygon class="st0" points="374,33 381.9,28.4 381.9,37.6 				"/>
				<polygon class="st0" points="346.2,28.7 353.8,33 346.2,37.3 				"/>
				<polygon class="st0" points="328.6,33 336,28.7 336,37.3 				"/>
				<polygon class="st0" points="300.7,29.1 307.5,33 300.7,36.9 				"/>
				<polygon class="st0" points="281.6,59.4 290.7,54.2 290.7,64.7 				"/>
				<polygon class="st0" points="276.7,66.8 286.8,72.7 276.7,78.5 				"/>
				<polygon class="st0" points="257,99.1 268.7,92.4 268.7,105.8 				"/>
				<polygon class="st0" points="253,105.1 265.5,112.3 253,119.6 				"/>
				<polygon class="st0" points="232.2,138.8 246.7,130.4 246.7,147.2 				"/>
				<polygon class="st0" points="229.1,143 244.6,152 229.1,161 				"/>
				<polygon class="st0" points="207.6,178.4 224.7,168.6 224.7,188.3 				"/>
				<polygon class="st0" points="205.6,181.7 222.8,191.7 205.6,201.6 				"/>
				<polygon class="st0" points="184.5,218.1 201.9,208.1 201.9,228.1 				"/>
				<polygon class="st0" points="206.5,236.1 221.1,244.5 206.5,253 				"/>
				<polygon class="st0" points="210.7,257.8 223.1,250.6 223.1,264.9 				"/>
				<polygon class="st0" points="231.8,280 239.1,284.2 231.8,288.4 				"/>
				<polygon class="st0" points="554.8,99 555,99.1 554.8,99.2 				"/>
				<polygon class="st0" points="538.8,72.7 540,72 540,73.3 				"/>
				<polygon class="st0" points="531.3,58.4 533.2,59.4 531.3,60.5 				"/>
				<polygon class="st0" points="507.9,17.7 511.4,19.8 507.9,21.8 				"/>
				<polygon class="st0" points="491,19.8 495.2,17.4 495.2,22.2 				"/>
				<polygon class="st0" points="461.4,16.6 466.9,19.8 461.4,22.9 				"/>
				<polygon class="st0" points="444,19.8 450,16.4 450,23.2 				"/>
				<polygon class="st0" points="415.2,15.9 421.9,19.8 415.2,23.6 				"/>
				<polygon class="st0" points="397.7,19.8 404.4,15.9 404.4,23.7 				"/>
				<polygon class="st0" points="369.4,15.9 376.1,19.8 369.4,23.6 				"/>
				<polygon class="st0" points="352.1,19.8 358.5,16.1 358.5,23.5 				"/>
				<polygon class="st0" points="323.9,16.3 329.9,19.8 323.9,23.2 				"/>
				<polygon class="st0" points="306.8,19.8 312.5,16.5 312.5,23 				"/>
				<polygon class="st0" points="283.3,33 289.9,29.2 289.9,36.8 				"/>
				<polygon class="st0" points="277.4,41.7 285.3,46.2 277.4,50.7 				"/>
				<polygon class="st0" points="258,72.7 268.2,66.8 268.2,78.5 				"/>
				<polygon class="st0" points="253.5,79.5 264.5,85.9 253.5,92.3 				"/>
				<polygon class="st0" points="233.3,112.3 246.2,104.9 246.2,119.8 				"/>
				<polygon class="st0" points="229.6,117.5 243.5,125.5 229.6,133.6 				"/>
				<polygon class="st0" points="208.3,152 224.4,142.7 224.4,161.3 				"/>
				<polygon class="st0" points="205.7,155.4 222.7,165.2 205.7,175 				"/>
				<polygon class="st0" points="184.3,191.7 202,181.4 202,201.9 				"/>
				<polygon class="st0" points="182.5,194.6 200.4,204.9 182.5,215.2 				"/>
				<polygon class="st0" points="182.8,221.6 199.7,231.3 182.8,241 				"/>
				<polygon class="st0" points="185.8,244.5 201.2,235.6 201.2,253.5 				"/>
				<polygon class="st0" points="207.6,264.5 218.9,271 207.6,277.5 				"/>
				<polygon class="st0" points="213.1,284.2 221.9,279.1 221.9,289.3 				"/>
				<polygon class="st0" points="562.2,85.9 562.6,85.7 562.6,86.1 				"/>
				<polygon class="st0" points="554.6,72.2 555.4,72.7 554.6,73.1 				"/>
				<polygon class="st0" points="538.3,46.2 540.2,45.1 540.2,47.3 				"/>
				<polygon class="st0" points="531.1,31.6 533.6,33 531.1,34.4 				"/>
				<polygon class="st0" points="531.1,5 533.7,6.6 531.1,8.1 				"/>
				<polygon class="st0" points="514.6,6.6 517.7,4.7 517.7,8.4 				"/>
				<polygon class="st0" points="484.8,4.1 488.9,6.6 484.8,9 				"/>
				<polygon class="st0" points="467.8,6.6 472.4,3.9 472.4,9.2 				"/>
				<polygon class="st0" points="438.6,3.5 443.9,6.6 438.6,9.6 				"/>
				<polygon class="st0" points="421.4,6.6 426.9,3.3 426.9,9.8 				"/>
				<polygon class="st0" points="392.7,3.3 398.3,6.6 392.7,9.8 				"/>
				<polygon class="st0" points="375.6,6.6 381.1,3.4 381.1,9.7 				"/>
				<polygon class="st0" points="347.1,3.6 352.2,6.6 347.1,9.5 				"/>
				<polygon class="st0" points="330.2,6.6 335.1,3.7 335.1,9.4 				"/>
				<polygon class="st0" points="301.5,4 305.9,6.6 301.5,9.1 				"/>
				<polygon class="st0" points="284.7,6.6 289.2,4 289.2,9.1 				"/>
				<polygon class="st0" points="278.2,16.6 283.7,19.8 278.2,23 				"/>
				<polygon class="st0" points="259.6,46.2 267.4,41.8 267.4,50.7 				"/>
				<polygon class="st0" points="254.2,54.3 263.1,59.4 254.2,64.6 				"/>
				<polygon class="st0" points="234.5,85.9 245.6,79.4 245.6,92.3 				"/>
				<polygon class="st0" points="230.3,92.2 242.3,99.1 230.3,106 				"/>
				<polygon class="st0" points="209.6,125.5 223.7,117.4 223.7,133.7 				"/>
				<polygon class="st0" points="206.3,130 221.5,138.8 206.3,147.6 				"/>
				<polygon class="st0" points="184.6,165.2 201.8,155.3 201.8,175.1 				"/>
				<polygon class="st0" points="182.5,168.2 200.3,178.4 182.5,188.7 				"/>
				<polygon class="st0" points="161.3,204.9 179.1,194.6 179.1,215.2 				"/>
				<polygon class="st0" points="159.7,208 177.2,218.1 159.7,228.2 				"/>
				<polygon class="st0" points="161.9,231.3 178.8,221.5 178.8,241.1 				"/>
				<polygon class="st0" points="183.7,249.6 197.9,257.8 183.7,265.9 				"/>
				<polygon class="st0" points="188,271 200.1,264 200.1,278 				"/>
				<polygon class="st0" points="561.9,59.4 562.8,58.9 562.8,60 				"/>
				<polygon class="st0" points="554.4,45.4 555.8,46.2 554.4,47 				"/>
				<polygon class="st0" points="538.1,19.8 540.4,18.4 540.4,21.1 				"/>
				<polygon class="st0" points="261.1,19.8 266.6,16.6 266.6,22.9 				"/>
				<polygon class="st0" points="255,29.2 261.5,33 255,36.8 				"/>
				<polygon class="st0" points="236,59.4 244.8,54.4 244.8,64.5 				"/>
				<polygon class="st0" points="230.9,66.9 240.9,72.7 230.9,78.4 				"/>
				<polygon class="st0" points="211.1,99.1 222.9,92.3 222.9,105.9 				"/>
				<polygon class="st0" points="207.1,105 219.8,112.3 207.1,119.7 				"/>
				<polygon class="st0" points="186,138.8 201.1,130.1 201.1,147.5 				"/>
				<polygon class="st0" points="183.1,142.6 199.3,152 183.1,161.3 				"/>
				<polygon class="st0" points="161.4,178.4 179.1,168.3 179.1,188.6 				"/>
				<polygon class="st0" points="159.7,181.4 177.3,191.7 159.7,201.9 				"/>
				<polygon class="st0" points="138.9,218.1 156,208.3 156,227.9 				"/>
				<polygon class="st0" points="160.3,235.5 176,244.5 160.3,253.6 				"/>
				<polygon class="st0" points="163.7,257.8 177.9,249.6 177.9,266 				"/>
				<polygon class="st0" points="185.1,278.4 195.2,284.2 185.1,290.1 				"/>
				<polygon class="st0" points="561.5,33 563,32.2 563,33.8 				"/>
				<polygon class="st0" points="554.3,18.8 556,19.8 554.3,20.8 				"/>
				<polygon class="st0" points="255.6,3.9 260.2,6.6 255.6,9.2 				"/>
				<polygon class="st0" points="237.5,33 244.1,29.2 244.1,36.8 				"/>
				<polygon class="st0" points="231.8,41.9 239.3,46.2 231.8,50.6 				"/>
				<polygon class="st0" points="212.5,72.7 222.2,67.1 222.2,78.2 				"/>
				<polygon class="st0" points="207.8,79.8 218.4,85.9 207.8,92 				"/>
				<polygon class="st0" points="187.9,112.3 200.2,105.2 200.2,119.4 				"/>
				<polygon class="st0" points="183.9,117.7 197.5,125.5 183.9,133.4 				"/>
				<polygon class="st0" points="162.6,152 178.5,142.8 178.5,161.2 				"/>
				<polygon class="st0" points="160,155.5 176.7,165.2 160,174.9 				"/>
				<polygon class="st0" points="138.9,191.7 156,181.8 156,201.5 				"/>
				<polygon class="st0" points="137,195 154,204.9 137,214.7 				"/>
				<polygon class="st0" points="137.3,222.1 153.3,231.3 137.3,240.5 				"/>
				<polygon class="st0" points="140.2,244.5 155.3,235.8 155.3,253.3 				"/>
				<polygon class="st0" points="161.5,263.9 173.7,271 161.5,278 				"/>
				<polygon class="st0" points="166.3,284.2 176.6,278.3 176.6,290.1 				"/>
				<polygon class="st0" points="561.4,6.6 563,5.6 563,7.5 				"/>
				<polygon class="st0" points="238.7,6.6 243.5,3.8 243.5,9.3 				"/>
				<polygon class="st0" points="232.4,16.6 238,19.8 232.4,23 				"/>
				<polygon class="st0" points="214.2,46.2 221.4,42 221.4,50.4 				"/>
				<polygon class="st0" points="208.7,54.8 216.8,59.4 208.7,64.1 				"/>
				<polygon class="st0" points="189.4,85.9 199.4,80.1 199.4,91.7 				"/>
				<polygon class="st0" points="184.8,92.9 195.7,99.1 184.8,105.4 				"/>
				<polygon class="st0" points="164.5,125.5 177.5,118 177.5,133.1 				"/>
				<polygon class="st0" points="160.8,130.5 175.1,138.8 160.8,147 				"/>
				<polygon class="st0" points="139.5,165.2 155.7,155.9 155.7,174.6 				"/>
				<polygon class="st0" points="137.1,168.8 153.7,178.4 137.1,188 				"/>
				<polygon class="st0" points="116.5,204.9 132.8,195.5 132.8,214.3 				"/>
				<polygon class="st0" points="114.5,209 130.2,218.1 114.5,227.2 				"/>
				<polygon class="st0" points="117.3,231.3 132.4,222.6 132.4,240.1 				"/>
				<polygon class="st0" points="138.3,250.2 151.4,257.8 138.3,265.4 				"/>
				<polygon class="st0" points="142.5,271 154.2,264.2 154.2,277.8 				"/>
				<polygon class="st0" points="215.3,19.8 220.8,16.6 220.8,22.9 				"/>
				<polygon class="st0" points="209.3,29.5 215.4,33 209.3,36.5 				"/>
				<polygon class="st0" points="191,59.4 198.6,55.1 198.6,63.8 				"/>
				<polygon class="st0" points="185.6,67.8 194.1,72.7 185.6,77.6 				"/>
				<polygon class="st0" points="166.5,99.1 176.5,93.3 176.5,104.9 				"/>
				<polygon class="st0" points="161.9,105.9 172.9,112.3 161.9,118.7 				"/>
				<polygon class="st0" points="141.2,138.8 154.8,130.9 154.8,146.6 				"/>
				<polygon class="st0" points="137.7,143.5 152.5,152 137.7,160.5 				"/>
				<polygon class="st0" points="116.7,178.4 132.7,169.2 132.7,187.7 				"/>
				<polygon class="st0" points="114.4,182.4 130.4,191.7 114.4,200.9 				"/>
				<polygon class="st0" points="94.6,218.1 109.4,209.5 109.4,226.7 				"/>
				<polygon class="st0" points="115.3,236.9 128.6,244.5 115.3,252.2 				"/>
				<polygon class="st0" points="119.3,257.8 131.4,250.8 131.4,264.7 				"/>
				<polygon class="st0" points="139.6,278.9 148.8,284.2 139.6,289.6 				"/>
				<polygon class="st0" points="209.7,3.7 214.6,6.6 209.7,9.4 				"/>
				<polygon class="st0" points="192.3,33 198,29.7 198,36.3 				"/>
				<polygon class="st0" points="186.4,42.6 192.6,46.2 186.4,49.8 				"/>
				<polygon class="st0" points="168.1,72.7 175.7,68.2 175.7,77.1 				"/>
				<polygon class="st0" points="162.7,81 171.2,85.9 162.7,90.8 				"/>
				<polygon class="st0" points="143.5,112.3 153.7,106.4 153.7,118.2 				"/>
				<polygon class="st0" points="138.8,118.9 150.3,125.5 138.8,132.2 				"/>
				<polygon class="st0" points="118,152 132.1,143.9 132.1,160.1 				"/>
				<polygon class="st0" points="114.8,156.6 129.7,165.2 114.8,173.9 				"/>
				<polygon class="st0" points="94.2,191.7 109.6,182.8 109.6,200.6 				"/>
				<polygon class="st0" points="91.8,196.2 106.9,204.9 91.8,213.6 				"/>
				<polygon class="st0" points="92.4,223.7 105.7,231.3 92.4,239 				"/>
				<polygon class="st0" points="96.4,244.5 108.5,237.5 108.5,251.6 				"/>
				<polygon class="st0" points="116.5,265.4 126.2,271 116.5,276.6 				"/>
				<polygon class="st0" points="121.9,284.2 130.1,279.4 130.1,289 				"/>
				<polygon class="st0" points="192.9,6.6 197.7,3.8 197.7,9.3 				"/>
				<polygon class="st0" points="186.8,17 191.7,19.8 186.8,22.6 				"/>
				<polygon class="st0" points="169.6,46.2 175,43.1 175,49.4 				"/>
				<polygon class="st0" points="163.5,56 169.6,59.4 163.5,62.9 				"/>
				<polygon class="st0" points="145.3,85.9 152.8,81.5 152.8,90.2 				"/>
				<polygon class="st0" points="139.9,94.3 148.2,99.1 139.9,103.9 				"/>
				<polygon class="st0" points="120.2,125.5 131,119.3 131,131.8 				"/>
				<polygon class="st0" points="115.7,131.7 127.9,138.8 115.7,145.8 				"/>
				<polygon class="st0" points="94.9,165.2 109.3,156.9 109.3,173.6 				"/>
				<polygon class="st0" points="91.9,169.8 106.8,178.4 91.9,187.1 				"/>
				<polygon class="st0" points="71.8,204.9 86.5,196.4 86.5,213.3 				"/>
				<polygon class="st0" points="69.3,210.1 83.2,218.1 69.3,226.1 				"/>
				<polygon class="st0" points="73.2,231.3 85.8,224 85.8,238.6 				"/>
				<polygon class="st0" points="93.6,252.1 103.4,257.8 93.6,263.4 				"/>
				<polygon class="st0" points="98.8,271 107.3,266.1 107.3,275.9 				"/>
				<polygon class="st0" points="170.3,19.8 174.6,17.3 174.6,22.3 				"/>
				<polygon class="st0" points="164.1,30.5 168.5,33 164.1,35.5 				"/>
				<polygon class="st0" points="146.9,59.4 152,56.5 152,62.4 				"/>
				<polygon class="st0" points="140.7,69.3 146.5,72.7 140.7,76 				"/>
				<polygon class="st0" points="122.5,99.1 129.8,94.9 129.8,103.3 				"/>
				<polygon class="st0" points="116.9,107.4 125.4,112.3 116.9,117.2 				"/>
				<polygon class="st0" points="96.7,138.8 108.4,132.1 108.4,145.5 				"/>
				<polygon class="st0" points="92.5,144.5 105.5,152 92.5,159.5 				"/>
				<polygon class="st0" points="71.8,178.4 86.5,170 86.5,186.9 				"/>
				<polygon class="st0" points="69.1,183.2 83.7,191.7 69.1,200.1 				"/>
				<polygon class="st0" points="49.6,218.1 63.2,210.2 63.2,226 				"/>
				<polygon class="st0" points="70.4,238.4 81,244.5 70.4,250.7 				"/>
				<polygon class="st0" points="75.7,257.8 84.6,252.6 84.6,262.9 				"/>
				<polygon class="st0" points="94.8,280.7 100.9,284.2 94.8,287.7 				"/>
				<polygon class="st0" points="164.3,4.4 168.1,6.6 164.3,8.7 				"/>
				<polygon class="st0" points="147.9,33 151.5,30.9 151.5,35.1 				"/>
				<polygon class="st0" points="141.4,44.1 145.1,46.2 141.4,48.3 				"/>
				<polygon class="st0" points="124.2,72.7 129,69.9 129,75.4 				"/>
				<polygon class="st0" points="117.9,82.7 123.5,85.9 117.9,89.1 				"/>
				<polygon class="st0" points="99.3,112.3 107.1,107.9 107.1,116.8 				"/>
				<polygon class="st0" points="93.7,120.1 103.1,125.5 93.7,131 				"/>
				<polygon class="st0" points="73.2,152 85.8,144.7 85.8,159.3 				"/>
				<polygon class="st0" points="69.4,157.3 83.1,165.2 69.4,173.1 				"/>
				<polygon class="st0" points="49,191.7 63.5,183.2 63.5,200.1 				"/>
				<polygon class="st0" points="46.2,196.5 60.7,204.9 46.2,213.2 				"/>
				<polygon class="st0" points="47,224.4 59.1,231.3 47,238.3 				"/>
				<polygon class="st0" points="51.9,244.5 62.1,238.7 62.1,250.4 				"/>
				<polygon class="st0" points="71.7,267.1 78.5,271 71.7,274.9 				"/>
				<polygon class="st0" points="78.1,284.2 83.3,281.2 83.3,287.3 				"/>
				<polygon class="st0" points="148.3,6.6 151.3,4.8 151.3,8.3 				"/>
				<polygon class="st0" points="141.7,18.2 144.5,19.8 141.7,21.4 				"/>
				<polygon class="st0" points="125.5,46.2 128.3,44.6 128.3,47.8 				"/>
				<polygon class="st0" points="118.7,57.6 121.9,59.4 118.7,61.3 				"/>
				<polygon class="st0" points="101.4,85.9 106.1,83.2 106.1,88.6 				"/>
				<polygon class="st0" points="94.9,95.8 100.7,99.1 94.9,102.4 				"/>
				<polygon class="st0" points="75.6,125.5 84.6,120.4 84.6,130.7 				"/>
				<polygon class="st0" points="70.3,132.5 81.2,138.8 70.3,145 				"/>
				<polygon class="st0" points="49.6,165.2 63.2,157.4 63.2,173.1 				"/>
				<polygon class="st0" points="46.2,170.1 60.7,178.4 46.2,186.8 				"/>
				<polygon class="st0" points="25.9,204.9 40.7,196.3 40.7,213.4 				"/>
				<polygon class="st0" points="23.5,210 37.5,218.1 23.5,226.2 				"/>
				<polygon class="st0" points="27.6,231.3 39.9,224.2 39.9,238.4 				"/>
				<polygon class="st0" points="48.4,253.1 56.4,257.8 48.4,262.4 				"/>
				<polygon class="st0" points="54.5,271 60.8,267.3 60.8,274.6 				"/>
				<polygon class="st0" points="126.1,19.8 128,18.6 128,20.9 				"/>
				<polygon class="st0" points="119.1,31.9 121,33 119.1,34.1 				"/>
				<polygon class="st0" points="102.9,59.4 105.3,58.1 105.3,60.8 				"/>
				<polygon class="st0" points="95.9,70.9 98.9,72.7 95.9,74.4 				"/>
				<polygon class="st0" points="78.2,99.1 83.3,96.2 83.3,102 				"/>
				<polygon class="st0" points="71.8,108.5 78.3,112.3 71.8,116.1 				"/>
				<polygon class="st0" points="51.6,138.8 62.2,132.7 62.2,144.9 				"/>
				<polygon class="st0" points="46.9,144.9 59.3,152 46.9,159.1 				"/>
				<polygon class="st0" points="25.9,178.4 40.7,169.9 40.7,187 				"/>
				<polygon class="st0" points="23.1,182.9 38.3,191.7 23.1,200.5 				"/>
				<polygon class="st0" points="3.2,218.1 17.7,209.7 17.7,226.5 				"/>
				<polygon class="st0" points="24.7,238.6 35.1,244.5 24.7,250.5 				"/>
				<polygon class="st0" points="30.4,257.8 38.5,253.1 38.5,262.4 				"/>
				<polygon class="st0" points="49.6,281.7 53.9,284.2 49.6,286.7 				"/>
				<polygon class="st0" points="119.2,5.6 120.8,6.6 119.2,7.5 				"/>
				<polygon class="st0" points="103.8,33 104.8,32.4 104.8,33.6 				"/>
				<polygon class="st0" points="96.4,45.5 97.7,46.2 96.4,46.9 				"/>
				<polygon class="st0" points="80,72.7 82.4,71.3 82.4,74 				"/>
				<polygon class="st0" points="72.8,83.9 76.2,85.9 72.8,87.8 				"/>
				<polygon class="st0" points="54.6,112.3 60.7,108.8 60.7,115.9 				"/>
				<polygon class="st0" points="48.3,120.7 56.6,125.5 48.3,130.4 				"/>
				<polygon class="st0" points="27.5,152 39.9,144.8 39.9,159.2 				"/>
				<polygon class="st0" points="23.5,157.1 37.5,165.2 23.5,173.3 				"/>
				<polygon class="st0" points="2.4,191.7 18.1,182.6 18.1,200.7 				"/>
				<polygon class="st0" points="0,195.8 15.8,204.9 0,214 				"/>
				<polygon class="st0" points="0.9,223.7 14,231.3 0.9,238.9 				"/>
				<polygon class="st0" points="5.7,244.5 16.5,238.3 16.5,250.8 				"/>
				<polygon class="st0" points="26.1,267.5 32.2,271 26.1,274.5 				"/>
				<polygon class="st0" points="33,284.2 37.2,281.8 37.2,286.6 				"/>
				<polygon class="st0" points="103.8,6.6 104.8,6 104.8,7.1 				"/>
				<polygon class="st0" points="96.6,19.4 97.3,19.8 96.6,20.1 				"/>
				<polygon class="st0" points="81.1,46.2 81.8,45.8 81.8,46.6 				"/>
				<polygon class="st0" points="73.6,58.8 74.6,59.4 73.6,60 				"/>
				<polygon class="st0" points="56.8,85.9 59.7,84.2 59.7,87.6 				"/>
				<polygon class="st0" points="49.7,96.7 53.8,99.1 49.7,101.5 				"/>
				<polygon class="st0" points="30.3,125.5 38.5,120.8 38.5,130.3 				"/>
				<polygon class="st0" points="24.6,132.6 35.2,138.8 24.6,144.9 				"/>
				<polygon class="st0" points="3.3,165.2 17.7,156.9 17.7,173.5 				"/>
				<polygon class="st0" points="0,169.4 15.7,178.4 0,187.5 				"/>
				<polygon class="st0" points="2.4,252.8 11,257.8 2.4,262.8 				"/>
				<polygon class="st0" points="8.7,271 15,267.3 15,274.6 				"/>
				<polygon class="st0" points="81.5,19.8 81.6,19.7 81.6,19.9 				"/>
				<polygon class="st0" points="73.9,32.9 74,33 73.9,33.1 				"/>
				<polygon class="st0" points="58.3,59.4 58.9,59.1 58.9,59.8 				"/>
				<polygon class="st0" points="50.6,71.8 52,72.7 50.6,73.5 				"/>
				<polygon class="st0" points="33.1,99.1 37.1,96.8 37.1,101.4 				"/>
				<polygon class="st0" points="26.2,109 32,112.3 26.2,115.7 				"/>
				<polygon class="st0" points="5.7,138.8 16.5,132.5 16.5,145 				"/>
				<polygon class="st0" points="0.9,144.4 14,152 0.9,159.5 				"/>
				<polygon class="st0" points="3.8,281.6 8.2,284.2 3.8,286.8 				"/>
				<polygon class="st0" points="73.9,6.4 74.1,6.6 73.9,6.7 				"/>
				<polygon class="st0" points="51,46.2 51.1,46.2 51,46.2 				"/>
				<polygon class="st0" points="34.9,72.7 36.2,71.9 36.2,73.4 				"/>
				<polygon class="st0" points="27.4,84.5 29.7,85.9 27.4,87.2 				"/>
				<polygon class="st0" points="9,112.3 14.8,108.9 14.8,115.7 				"/>
				<polygon class="st0" points="2.4,120.7 10.9,125.5 2.4,130.4 				"/>
				<polygon class="st0" points="58.7,6.6 58.7,6.6 58.7,6.6 				"/>
				<polygon class="st0" points="28.1,59.3 28.3,59.4 28.1,59.6 				"/>
				<polygon class="st0" points="11.4,85.9 13.6,84.6 13.6,87.2 				"/>
				<polygon class="st0" points="4,96.9 7.8,99.1 4,101.3 				"/>
				<polygon class="st0" points="12.8,59.4 12.9,59.4 12.9,59.5 				"/>
				<polygon class="st0" points="4.9,72.1 5.9,72.7 4.9,73.3 				"/>
			</g>
		</g>
	</g>
</g>
</svg>
