<?xml version="1.0" encoding="utf-8"?>
<!-- Generator: Adobe Illustrator 26.0.0, SVG Export Plug-In . SVG Version: 6.00 Build 0)  -->
<svg version="1.1" id="Слой_1" xmlns="http://www.w3.org/2000/svg" xmlns:xlink="http://www.w3.org/1999/xlink" x="0px" y="0px"
	 viewBox="0 0 577.1 92.5" style="enable-background:new 0 0 577.1 92.5;" xml:space="preserve">
<style type="text/css">
	.st0{fill:#1B5292;}
	.st1{fill:#CB2628;}
	.st2{fill:#FDFDFE;}
</style>
<g>
	<path class="st0" d="M577.1,59c-3.8,0.4-3.7,0.4-3.8-3.3c0-3.8,0-7.6,0.2-11.4c-0.5,0.1-0.6,0.5-0.7,0.8c-2.7,4.3-5.3,8.7-7.9,13.1
		c-0.4,0.7-0.8,1-1.6,0.9c-1.3-0.1-3,0.5-3.8-0.3c-0.7-0.8-0.2-2.4-0.2-3.7c0-4.9,0-9.8,0-14.7c0-0.8,0.2-1.1,1-1.1
		c2.7,0,2.7,0,2.7,2.7c0,4,0,7.9,0,12c0.2-0.4,0.4-0.7,0.7-1.1c2.6-4.2,5.2-8.4,7.7-12.7c0.5-0.8,0.9-1,1.8-1c1.3,0.1,2.6,0,3.8,0
		C577.1,45.9,577.1,52.4,577.1,59z"/>
	<path class="st0" d="M1.6,92.5c-0.7-0.4-1.3-2.8-0.9-3.6c0.2-0.4,0.5-0.2,0.7-0.1C2.3,88.9,3.2,89,4,88.9c1.9-0.1,2.8-1.7,2-3.4
		c-1.9-4-3.9-8-5.8-12c-0.4-0.9-0.3-1,0.7-1c3.3,0,3.3,0,4.6,3c1.1,2.6,2.3,5.3,3.4,7.9c0.4-0.1,0.4-0.5,0.5-0.8
		c1.3-3,2.5-6,3.7-9.1c0.3-0.8,0.8-1.1,1.6-1c0.8,0.1,1.6,0,2.4,0c0.5,0,0.8,0.1,0.5,0.7c-2.4,5.2-4.4,10.5-7,15.6
		c-1,2-2.8,3.2-4.9,3.8C4.3,92.5,2.9,92.5,1.6,92.5z"/>
	<path class="st0" d="M121.5,92.5c-0.1-0.1-0.1-0.2-0.2-0.2c-3.8-1-5.6-3.6-6.1-7.3c-0.3-2-0.3-4.1,0.2-6.1
		c1.3-5.1,5.9-7.7,11.4-6.4c0.2,0,0.3,0.1,0.5,0.1c3,0.7,3.2,1.2,1.7,3.9c-0.3,0.5-0.5,0.4-0.8,0.2c-0.8-0.3-1.6-0.6-2.4-0.8
		c-2.8-0.7-5,0.5-5.9,3.2c-0.7,2.3-0.7,4.6,0,6.8c0.6,2,2,2.9,4,3c1.5,0.1,3-0.2,4.5-0.7c0.8-0.3,1,0,1,0.8c0,2.7,0,2.7-2.7,3.2
		c-0.2,0-0.4,0-0.5,0.2C124.6,92.5,123.1,92.5,121.5,92.5z"/>
	<path class="st0" d="M363.9,47.5c0,2.4,0,4.7,0,7.1c0,0.8,0.2,1.1,1,1.1c1.6-0.1,1.6,0,1.6,1.6c0,2.2,0,4.4,0,6.6c0,0.8-0.3,1-1,1
		c-3.1,0-3.1,0-3.1-3c0-2.7,0-2.7-2.7-2.7c-2.9,0-5.8,0-8.6,0c-0.8,0-1.1,0.2-1,1c0.1,1.3,0,2.6,0,3.9c0,0.6-0.2,0.8-0.8,0.8
		c-3.2,0.2-3.2,0.2-3.2-3c0-1.8,0-3.5,0-5.3c0-0.6,0-1,0.8-0.9c0.8,0.1,0.9-0.4,1.2-0.9c2.1-4.3,3.4-8.9,4.1-13.7
		c0.2-1.7,0.2-1.7,1.9-1.7c3,0,5.9,0,8.9,0c0.8,0,1,0.2,1,1C363.8,42.7,363.9,45.1,363.9,47.5z M352.1,55.6c2.2,0,4.3,0,6.5,0
		c0.9,0,1.2-0.2,1.2-1.1c-0.1-2.9,0-5.8,0-8.7c0-3,0-3-3.1-3c-0.8,0-1,0.2-1.1,1c-0.3,2-0.8,4.1-1.4,6
		C353.5,51.7,352.8,53.6,352.1,55.6z"/>
	<path class="st0" d="M71.5,39.1c0.2,0,0.5,0,0.7,0c1-0.2,1.3,0.3,1.1,1.2c-0.2,1,0.2,1.2,1.2,1.3c3.2,0.3,6,1.4,7.2,4.7
		c1.7,4.6-1.2,9.1-6.1,9.9c-2.1,0.3-2.2,0.3-2.2,2.4c0,0.6-0.2,0.9-0.8,0.8c-0.1,0-0.2,0-0.4,0c-0.8,0-1.8,0.2-2.3-0.1
		c-0.7-0.4-0.2-1.5-0.3-2.2c0-0.5-0.2-0.7-0.7-0.7c-0.8-0.1-1.6-0.2-2.4-0.4c-3.8-1-5.8-3.7-5.7-7.6c0.1-3.4,2.5-5.9,6.2-6.6
		c0.2,0,0.5-0.1,0.7-0.1c1.3,0,2.2-0.3,1.9-1.9c-0.1-0.5,0.2-0.7,0.7-0.7C70.7,39.1,71.1,39.1,71.5,39.1z M73.3,48.9
		c0,1.1,0,2.2,0,3.3c0,0.7,0.2,0.8,0.8,0.7c2.4-0.2,4-1.8,4-4.2c0-2.4-1.5-3.8-4-4c-0.6,0-0.9,0.1-0.8,0.7
		C73.4,46.7,73.3,47.8,73.3,48.9z M69.6,48.9c0-1.1,0-2.2,0-3.3c0-0.6-0.1-0.8-0.8-0.8c-2.4,0.1-4,1.7-4,4c0,2.4,1.7,4.1,4.1,4.2
		c0.6,0,0.7-0.2,0.7-0.7C69.5,51.2,69.6,50,69.6,48.9z"/>
	<path class="st0" d="M45.3,87.3c2.2-3.5,4.2-6.9,6.2-10.2c0.8-1.3,1.6-2.6,2.4-3.9c0.3-0.5,0.7-0.8,1.3-0.8c1.1,0.1,2.2,0,3.4,0
		c0.6,0,0.8,0.2,0.8,0.8c0,6.1,0,12.1,0,18.2c0,0.5-0.1,0.8-0.7,0.8c-0.1,0-0.2,0-0.2,0c-2.8,0.1-2.8,0.1-2.8-2.7
		c0-4-0.1-8,0.3-12.2c-0.5,0.3-0.6,0.7-0.9,1.1c-2.6,4.3-5.3,8.6-7.9,13c-0.4,0.7-0.8,1-1.6,0.9c-1-0.1-1.9-0.1-2.9,0
		c-0.9,0.1-1.2-0.1-1.2-1.1c0-5.9,0-11.7,0-17.6c0-0.9,0.3-1.1,1.2-1.1c2.6,0,2.6,0,2.6,2.6C45.3,79,45.3,83,45.3,87.3z"/>
	<path class="st0" d="M147.5,77.4c-1,1.7-2.1,3.4-3.1,5.1c-1.8,3-3.6,5.9-5.4,8.9c-0.3,0.6-0.7,0.9-1.4,0.8c-1-0.1-2.1-0.1-3.1,0
		c-0.9,0.1-1-0.3-1-1.1c0-5.9,0-11.7,0-17.6c0-0.9,0.2-1.1,1.1-1.1c2.7,0,2.7,0,2.7,2.7c0,4,0.1,7.9,0,12c0.2-0.3,0.4-0.6,0.6-0.9
		c2.6-4.2,5.2-8.5,7.8-12.8c0.5-0.8,0.9-1.1,1.8-1c1,0.1,2,0,3,0c0.6,0,0.8,0.2,0.8,0.8c0,6.1,0,12.1,0,18.2c0,0.6-0.2,0.8-0.8,0.8
		c-2.9,0.1-2.9,0.1-2.9-2.8C147.6,85.5,147.5,81.5,147.5,77.4z"/>
	<path class="st0" d="M75.3,81.8c2.4,0.6,3.5,1.9,3.7,4c0.1,2.1-0.5,3.9-2.4,5.1c-1.3,0.9-2.8,1.2-4.3,1.2c-2.4,0.1-4.7,0-7.1,0
		c-0.7,0-0.9-0.2-0.9-0.9c0-6,0-12,0-18c0-0.5,0-0.9,0.6-0.9c3.2,0.1,6.4-0.3,9.5,0.4c3.2,0.7,4.6,3,3.8,6.1
		C77.9,80.4,77,81.3,75.3,81.8z M68.5,86.1c0,0.7,0,1.4,0,2c0,0.5,0.1,0.7,0.6,0.6c1.2,0,2.3,0,3.5-0.1c1.3-0.2,2-1.1,2-2.4
		c0-1.3-0.5-2-1.8-2.4c-0.6-0.2-1.2-0.2-1.8-0.2C68.5,83.6,68.5,83.6,68.5,86.1z M68.5,78.1c0,0.6,0,1.1,0,1.7
		c0,0.3,0.1,0.5,0.5,0.5c1.2,0,2.4,0.1,3.6-0.2c1.1-0.3,1.6-1,1.6-2.1c0-1.1-0.5-1.7-1.6-2c-0.6-0.2-1.3-0.2-1.9-0.2
		C68.5,75.9,68.5,75.9,68.5,78.1z"/>
	<path class="st0" d="M550.5,44.3c-2.7,4.5-5.5,9-8.2,13.5c-0.6,1-1.2,1.4-2.4,1.3c-0.9-0.1-1.8,0-2.6,0c-0.6,0-0.9-0.1-0.9-0.8
		c0-6.1,0-12.1,0-18.2c0-0.5,0.1-0.7,0.7-0.8c3.1-0.2,3.1-0.2,3.1,2.9c0,3.9,0,7.8,0,11.7c0.3,0,0.4-0.5,0.5-0.7
		c2.6-4.3,5.3-8.6,7.9-13c0.4-0.7,0.8-1,1.6-0.9c1,0.1,2.1,0.1,3.1,0c0.8-0.1,0.9,0.2,0.9,0.9c0,5.9,0,11.9,0,17.8c0,0.8-0.3,1-1,1
		c-2.8,0-2.8,0-2.8-2.7C550.6,52.3,550.5,48.3,550.5,44.3z"/>
	<path class="st0" d="M445.4,54.3c1.1-1.7,1.9-3.2,2.8-4.6c1.9-3.2,3.9-6.4,5.8-9.6c0.3-0.5,0.6-0.8,1.3-0.8c1.1,0.1,2.2,0,3.4,0
		c0.6,0,0.8,0.1,0.8,0.8c0,6.1,0,12.1,0,18.2c0,0.5-0.1,0.7-0.7,0.8c-3,0.2-3,0.2-3-2.8c0-3.9,0-7.9,0.2-11.9
		c-0.6,0.3-0.7,0.7-0.9,1.1c-2.6,4.3-5.2,8.6-7.8,12.9c-0.3,0.6-0.7,0.9-1.4,0.8c-1.1-0.1-2.2-0.1-3.4,0c-0.6,0-0.8-0.2-0.8-0.8
		c0-6.1,0-12.1,0-18.2c0-0.6,0.2-0.7,0.8-0.7c3-0.1,3.1-0.2,3,2.9c0,3.6,0.1,7.2-0.1,10.8C445.4,53.3,445.4,53.6,445.4,54.3z"/>
	<path class="st0" d="M150.8,44.4c-0.4,0.1-0.5,0.6-0.7,0.9c-2.6,4.3-5.2,8.6-7.8,12.9c-0.4,0.7-0.8,1-1.6,0.9
		c-1.1-0.1-2.2-0.1-3.2,0c-0.6,0-0.8-0.2-0.8-0.8c0-6,0-12,0-18.1c0-0.6,0.1-0.8,0.8-0.8c3-0.1,3-0.1,3,2.9c0,3.9,0.1,7.8-0.2,11.8
		c0.5-0.1,0.6-0.6,0.8-0.9c2.6-4.3,5.3-8.6,7.9-13c0.4-0.7,0.8-0.9,1.6-0.9c1,0.1,2,0.1,3,0c0.7,0,1,0.1,1,0.9c0,6,0,12,0,17.9
		c0,0.7-0.2,0.9-0.9,0.9c-2.8,0.1-2.8,0.1-2.8-2.7c0-3.8-0.1-7.7,0.1-11.5C150.9,44.7,150.8,44.5,150.8,44.4c0.1,0,0.1,0,0.2-0.1
		c0,0,0-0.1-0.1-0.1C150.9,44.3,150.8,44.3,150.8,44.4z"/>
	<path class="st0" d="M168,39.1c5.4,0,8.4,2.6,9.2,8c0.4,2.5,0.2,4.8-0.8,7.2c-0.9,2.3-2.6,3.9-5,4.6c-2.4,0.7-4.7,0.7-7.1,0
		c-3-0.9-4.7-3.1-5.4-6c-0.6-2.4-0.6-4.9,0-7.3C160.1,41.2,163.2,39.1,168,39.1z M163,49.2c0,1.2,0.1,2.4,0.5,3.5
		c0.7,2.1,2.2,3.1,4.4,3.1c2.3,0,3.9-1,4.6-3.1c0.7-2.3,0.7-4.7,0-7c-0.7-2.2-2.2-3.2-4.5-3.2c-2.3,0-3.8,1.1-4.5,3.2
		C163.1,46.9,163,48,163,49.2z"/>
	<path class="st0" d="M289.8,59.3c-5.8,0-9-3.2-9.4-9.3c-0.1-1.3,0-2.6,0.3-3.8c0.9-4.6,3.8-7,8.5-7.1c1.2,0,2.5,0,3.7,0.3
		c3.1,0.8,5,2.9,5.8,5.9c0.7,2.6,0.7,5.2,0,7.8C297.6,57.2,294.5,59.3,289.8,59.3z M284.8,49.2c0,1.3,0.1,2.5,0.6,3.8
		c0.8,1.9,2.3,2.9,4.5,2.9c2.2,0,3.7-1,4.4-3c0.8-2.3,0.8-4.6,0.1-6.9c-0.7-2.3-2.2-3.4-4.6-3.4c-2.3,0-3.9,1.2-4.6,3.5
		C284.9,47,284.8,48.1,284.8,49.2z"/>
	<path class="st0" d="M39.1,49c0.1-0.8,0.1-1.7,0.2-2.5c1.3-6.9,9.6-10,15.2-5.7c1.1,0.8,1.9,1.8,2.4,3.1c1.4,3.5,1.4,7,0,10.5
		c-0.9,2.3-2.6,3.8-5,4.5c-2.4,0.7-4.7,0.7-7.1,0c-3.7-1.2-5.2-4-5.7-7.5C39.2,50.5,39.2,49.8,39.1,49z M43.6,49.1
		c-0.1,1.2,0.1,2.4,0.5,3.6c0.7,2.1,2.3,3.1,4.6,3.1c2.2,0,3.8-1.1,4.4-3.2c0.7-2.3,0.7-4.6,0-6.8c-0.7-2.3-2.2-3.3-4.5-3.3
		c-2.3,0-3.8,1.1-4.6,3.3C43.6,46.9,43.5,48,43.6,49.1z"/>
	<path class="st0" d="M403.3,49c0.1-0.7,0-1.5,0.2-2.4c1.2-6.9,9.2-10.2,15-6.1c1.4,1,2.3,2.3,2.9,3.9c1,3,1.1,6.1,0.1,9.1
		c-1,2.9-3,4.7-6,5.4c-1.7,0.4-3.5,0.4-5.2,0c-4-0.8-6.4-3.7-6.8-8C403.4,50.4,403.4,49.8,403.3,49z M407.7,49.1
		c0,1.2,0.1,2.4,0.5,3.5c0.7,2.1,2.3,3.2,4.7,3.2c2.3-0.1,3.8-1.2,4.4-3.3c0.6-2.1,0.6-4.3,0-6.5c-0.7-2.4-2.1-3.5-4.5-3.5
		c-2.4,0-4,1.1-4.7,3.4C407.8,47,407.7,48,407.7,49.1z"/>
	<path class="st0" d="M181.5,49.1c0-3,0-5.9,0-8.9c0-0.7,0.2-1,0.9-0.9c0.8,0.1,1.6,0.1,2.4,0c0.8-0.1,0.9,0.3,0.9,1
		c0,1.9,0,3.8,0,5.7c0,0.7,0.2,1.1,1,1c2-0.1,4,0,6,0c0.7,0,0.9-0.2,0.9-0.9c0-2,0-4,0-6c0-0.7,0.2-0.9,0.9-0.9
		c1.1,0.1,2.4-0.3,3.1,0.2c0.7,0.5,0.2,1.9,0.2,3c0,5.1,0,10.3,0,15.4c0,0.9-0.2,1.2-1.1,1.1c-1-0.1-2.3,0.4-2.9-0.2
		c-0.6-0.6-0.2-1.9-0.2-2.9c0-1.5,0-3,0-4.5c0-0.6-0.1-0.9-0.8-0.9c-2,0-4.1,0-6.1,0c-0.7,0-0.9,0.2-0.9,0.9c0,2.2,0,4.5,0,6.7
		c0,0.7-0.2,1-0.9,0.9c-1.1-0.1-2.4,0.4-3.1-0.2c-0.5-0.5-0.2-1.9-0.2-2.9C181.5,53.7,181.5,51.4,181.5,49.1z"/>
	<path class="st0" d="M36.6,82.4c0,2.9,0,5.9,0,8.8c0,0.7-0.2,0.9-0.9,1c-3.3,0-3.3,0.1-3.3-3.2c0-1.5,0-2.9,0-4.4
		c0-0.8-0.2-0.9-1-0.9c-2,0-3.9,0.1-5.9,0c-0.8,0-1,0.3-1,1c0,2.2,0,4.3,0,6.5c0,0.8-0.2,1.2-1,1.1c-1-0.1-2.4,0.4-3-0.2
		c-0.7-0.6-0.2-2-0.2-3c0-5.1,0-10.2,0-15.3c0-0.9,0.2-1.3,1.2-1.3c3,0.1,3,0,3,3c0,1.3,0,2.6,0,3.9c0,0.6,0.2,0.8,0.8,0.8
		c2,0,4.1,0,6.1,0c0.7,0,0.9-0.2,0.9-0.9c0-2,0-3.9,0-5.9c0-0.8,0.2-1,1-1c3.3,0,3.3-0.1,3.3,3.2C36.6,77.9,36.6,80.2,36.6,82.4z"/>
	<path class="st1" d="M210.2,92.1c6.4-6.4,12.8-12.8,19.3-19.3c0,0.3,0,0.7,0,1c0,5.8,0,11.6,0,17.3c0,0.6,0,1-0.9,1
		c-6.1,0-12.2,0-18.2,0C210.4,92.1,210.3,92.1,210.2,92.1z"/>
	<path class="st0" d="M17.6,49.3c0,3,0,5.9,0,8.9c0,0.7-0.2,0.9-0.9,0.9c-3.3,0.1-3.3,0.1-3.3-3.1c0-4,0-8.1,0-12.1
		c0-0.8-0.2-1.1-1-1c-1.8,0.1-3.5,0.1-5.3,0c-0.9,0-1,0.3-1,1.1c0,4.7,0,9.3,0,14c0,1-0.3,1.2-1.2,1.2c-3,0-3,0-3-3
		c0-5.2,0-10.4,0-15.7c0-0.9,0.2-1.1,1.1-1.1c4.5,0,9,0,13.6,0c0.8,0,1,0.2,1,1C17.6,43.3,17.6,46.3,17.6,49.3z"/>
	<path class="st0" d="M276.3,49.2c0,3,0,5.9,0,8.9c0,0.9-0.3,1-1.1,1c-3.1,0-3.1,0-3.1-3.1c0-1.5,0-3,0-4.5c0-0.7-0.2-0.9-0.9-0.9
		c-2,0-4.1,0-6.1,0c-0.7,0-0.9,0.2-0.9,0.9c0,2.2,0,4.5,0,6.7c0,0.7-0.2,0.9-0.9,0.9c-3.3,0-3.3,0.1-3.3-3.2c0-5.1,0-10.3,0-15.4
		c0-0.9,0.2-1.2,1.1-1.1c1,0.1,2.3-0.4,2.9,0.2c0.6,0.6,0.2,1.9,0.2,2.9c0,1.3,0,2.6,0,3.8c0,0.6,0.1,0.8,0.8,0.8c2.1,0,4.2,0,6.2,0
		c0.7,0,0.9-0.3,0.8-0.9c0-2,0-3.9,0-5.9c0-0.7,0.1-1,0.9-1c1,0.1,2.4-0.3,3,0.2c0.7,0.5,0.2,1.9,0.2,3
		C276.3,44.7,276.3,46.9,276.3,49.2z"/>
	<path class="st0" d="M312.3,49.1c0-2.9,0-5.8,0-8.7c0-0.7,0.1-1,0.9-1c4.6,0,9.2,0,13.8,0c0.7,0,0.9,0.2,0.9,0.9
		c0,5.9,0,11.9,0,17.8c0,0.8-0.2,1-1,1c-3.2,0-3.2,0-3.2-3.1c0-4,0-8,0-12.1c0-0.8-0.2-1.1-1-1c-1.8,0.1-3.5,0.1-5.3,0
		c-0.8,0-1.1,0.3-1.1,1.1c0,4.7,0,9.3,0,14c0,1-0.3,1.2-1.2,1.2c-3,0-3,0-3-2.9C312.3,53.8,312.3,51.4,312.3,49.1z"/>
	<path class="st0" d="M237.4,49.2c0,3,0,6,0,9c0,0.7-0.2,0.9-0.9,0.9c-3.2,0-3.2,0.1-3.2-3.2c0-3.9,0-7.8,0-11.7
		c0-1-0.2-1.5-1.3-1.3c-1.1,0.1-2.6-0.4-3.4,0.2c-0.8,0.7-0.5,2.2-0.6,3.3c-0.4,2.8-0.7,5.6-1.4,8.4c-0.2,0.9-0.5,1.8-1,2.5
		c-1.1,1.8-3.9,2.7-5.7,1.9c-0.4-0.2-0.4-0.4-0.4-0.7c0-0.4,0-0.9,0-1.3c0-0.9-0.2-1.7,1.2-1.3c1,0.3,1.5-0.6,1.8-1.4
		c0.7-2.1,0.9-4.2,1.2-6.3c0.4-2.7,0.8-5.4,1.1-8c0.1-0.5,0.2-0.7,0.8-0.7c3.7,0,7.4,0,11,0c0.7,0,0.8,0.3,0.7,0.9
		C237.4,43.2,237.4,46.2,237.4,49.2z"/>
	<path class="st0" d="M200.2,59c0.7-2.1,1.4-4,2.1-5.9c1.5-4.2,3-8.5,4.4-12.7c0.3-0.8,0.6-1.2,1.5-1.1c1.3,0.1,3-0.5,4,0.3
		c0.9,0.7,1,2.3,1.4,3.6c1.8,4.9,3.5,9.9,5.3,14.8c0.3,0.9,0.2,1.2-0.8,1.1c-1.1-0.1-2.5,0.4-3.2-0.2c-0.7-0.6-0.8-1.9-1-3
		c-0.2-1.2-0.8-1.6-2-1.5c-1.6,0.1-3.2,0.1-4.8,0c-0.7,0-1,0.2-1.2,0.9c-0.2,1-0.6,1.9-0.8,2.9c-0.2,0.8-0.6,1-1.3,1
		C202.6,59,201.5,59,200.2,59z M209.8,42.5c-0.8,2.6-1.5,5-2.2,7.3c-0.3,0.9-0.1,1.1,0.8,1c1.1-0.1,2.2,0,3.4,0
		c0.5,0,0.6-0.2,0.5-0.6C211.4,47.7,210.6,45.2,209.8,42.5z"/>
	<path class="st0" d="M376.6,39.3c2.6,0,2.6,0,3.4,2.4c1.9,5.4,3.8,10.9,5.8,16.3c0.3,0.9,0.2,1.2-0.8,1.1c-1.1-0.1-2.5,0.4-3.3-0.2
		c-0.7-0.6-0.9-1.9-1.1-3c-0.2-1.2-0.8-1.6-2-1.5c-1.6,0.1-3.3,0.1-4.9,0c-0.6,0-0.9,0.2-1,0.7c-0.3,1.1-0.7,2.1-1,3.2
		c-0.1,0.6-0.4,0.8-1,0.7c-0.8,0-1.7-0.1-2.5,0c-1,0.1-1.2-0.1-0.9-1.2c1.8-5,3.6-10.1,5.4-15.2c0.1-0.3,0.2-0.7,0.4-1
		C374,39.3,374,39.3,376.6,39.3z M374.1,50.8c1.7,0,3.4,0,5.1,0c-0.8-2.8-1.7-5.4-2.5-8.3C375.8,45.4,375,48,374.1,50.8z"/>
	<path class="st0" d="M522.3,48.6c2.2-2.9,4.2-5.7,6.3-8.5c0.4-0.6,0.9-0.9,1.7-0.8c1.1,0.1,2.1,0,3.4,0c-1.8,2.4-3.5,4.5-5.1,6.7
		c-0.7,0.9-1.9,1.8-1.9,2.8c0.1,0.9,1.2,1.8,1.8,2.7c1.8,2.4,3.6,4.9,5.5,7.5c-1.6,0-3,0-4.4,0c-0.6,0-0.7-0.4-1-0.8
		c-1.9-2.6-3.8-5.2-5.6-7.9c-0.2-0.3-0.5-0.6-0.9-1.2c0,1.1,0,1.9,0,2.7c0,2.1,0,4.1,0,6.2c0,0.7-0.2,1-0.9,0.9
		c-1.1-0.1-2.4,0.4-3.1-0.2c-0.6-0.6-0.2-2-0.2-3c0-5.1,0-10.2,0-15.3c0-0.9,0.1-1.3,1.1-1.2c1,0.1,2.3-0.4,2.9,0.2
		c0.6,0.6,0.2,1.9,0.2,2.9c0,2,0,3.9,0,5.9C522.1,48.3,522.2,48.4,522.3,48.6z"/>
	<path class="st0" d="M82.9,82.3c0-2.9,0-5.9,0-8.8c0-0.8,0.2-1,1-1c3.2,0,6.3,0,9.5,0c0.7,0,1,0.2,1,0.9c0,2.5,0.1,2.5-2.5,2.5
		c-1.3,0-2.6,0-4,0c-0.6,0-0.8,0.2-0.8,0.8c-0.1,3.5-0.2,3.5,3.4,3.5c0.9,0,1.8,0,2.6,0c0.3,0,0.6-0.1,0.6,0.3c0,0.9,0,1.8,0,2.7
		c0,0.5-0.5,0.3-0.8,0.3c-1.6,0-3.3,0-4.9,0c-0.7,0-1,0.2-1,0.9c0.1,1.1,0.1,2.2,0,3.2c0,0.7,0.2,1,0.9,1c1.8-0.1,3.6,0,5.4,0
		c0.7,0,0.9,0.2,0.9,0.9c0.1,2.6,0.1,2.6-2.5,2.6c-2.6,0-5.3,0-7.9,0c-0.9,0-1.1-0.3-1-1.1C83,88.2,82.9,85.3,82.9,82.3z"/>
	<path class="st0" d="M85.8,49.1c0-2.9,0-5.8,0-8.7c0-0.8,0.1-1.1,1-1.1c3.2,0.1,6.3,0.1,9.5,0c0.8,0,1,0.3,1,1c0,2.4,0,2.4-2.3,2.4
		c-1.4,0-2.7,0-4.1,0c-0.6,0-0.9,0.2-0.8,0.8c0.1,1.1-0.5,2.6,0.2,3.3c0.6,0.5,2,0.2,3.1,0.2c0.9,0,1.8,0,2.6,0
		c0.5,0,0.8,0.2,0.7,0.7c0,0,0,0.1,0,0.1c0.1,2.7,0.1,2.7-2.6,2.7c-1.1,0-2.2,0-3.4,0c-0.6,0-0.8,0.2-0.8,0.8c0,1.2,0,2.3,0,3.5
		c0,0.6,0.2,0.8,0.8,0.8c1.8,0,3.7,0,5.5,0c0.7,0,0.9,0.2,0.9,0.9c0,2.6,0.1,2.6-2.5,2.6c-2.7,0-5.4,0-8,0c-0.7,0-0.9-0.2-0.9-1
		C85.9,55.1,85.8,52.1,85.8,49.1z"/>
	<path class="st0" d="M98.5,82.3c0-2.9,0-5.8,0-8.7c0-0.8,0.1-1.1,1-1.1c2.3,0.1,4.6-0.1,6.8,0.1c3.7,0.3,5.8,2.5,5.8,6
		c0,3.6-2.1,6.1-5.7,6.5c-0.9,0.1-1.9,0.2-2.9,0.1c-0.7,0-1,0.2-1,0.9c0,1.7,0,3.4,0,5.1c0,0.7-0.1,1-0.9,1c-1-0.1-2.4,0.3-3-0.2
		c-0.7-0.5-0.2-1.9-0.2-2.9C98.4,86.8,98.5,84.5,98.5,82.3z M104.3,75.9c-1.7,0-1.7,0-1.7,1.7c0,0.6,0,1.3,0,1.9
		c0,2.4,0.2,2.6,2.6,2.1c2.1-0.4,3.2-2.2,2.4-4.2C107,76,105.7,75.9,104.3,75.9z"/>
	<path class="st0" d="M284.7,15c0,2.5,0,5.1,0,7.6c0,0.9,0.2,1.4,1.2,1.2c1.1-0.2,1.4,0.2,1.3,1.3c-0.1,1.7-0.1,3.4,0,5.1
		c0,0.9-0.5,0.8-1.1,0.8c-0.6,0-1.2,0.2-1.2-0.8c0.1-1.2,0-2.4,0-3.6c0-0.6-0.2-0.8-0.7-0.8c-4.1,0-8.1,0-12.2,0
		c-0.7,0-0.8,0.3-0.8,0.8c0,1.2,0,2.4,0,3.6c0,1-0.7,0.7-1.2,0.7c-0.5,0-1.1,0.2-1.1-0.7c0.1-1.9,0-3.8,0-5.7c0-0.5,0.1-0.8,0.7-0.7
		c0.8,0.1,1.1-0.3,1.4-0.9c2.5-5,4-10.2,4.5-15.7c0.1-0.8,0.2-1,1-1c2.4,0,4.8,0,7.2,0c0.8,0,0.9,0.3,0.9,1
		C284.6,9.8,284.7,12.4,284.7,15z M282.3,16.1c0-2.3,0-4.6,0-6.9c0-0.8-0.2-1-1-0.9c-0.9,0.1-1.8,0.1-2.8,0c-0.8-0.1-1,0.2-1.1,1
		c-0.6,4.8-2,9.4-4.2,13.8c-0.4,0.9-0.1,0.9,0.6,0.9c2.5,0,5,0,7.4,0c0.7,0,1-0.2,0.9-0.9C282.3,20.6,282.3,18.4,282.3,16.1z"/>
	<path class="st0" d="M479.7,49.2c0,2.9,0,5.8,0,8.7c0,0.8-0.1,1.1-1,1.1c-3.2,0-3.2,0-3.2-3.1c0-1.2,0-2.4,0-3.6
		c0-0.8-0.2-0.8-0.9-0.6c-2.2,0.7-4.4,1.2-6.7,0.8c-2.8-0.4-4.4-2.1-4.4-4.9c0-2.5,0-4.9,0-7.4c0-0.7,0.2-0.9,0.9-0.9
		c1.1,0.1,2.4-0.4,3.1,0.2c0.6,0.6,0.2,2,0.2,3c0,1.2,0,2.5,0,3.7c0,2.1,0.9,2.9,2.9,2.9c1.4,0,2.8-0.3,4.1-0.7
		c0.7-0.2,0.8-0.5,0.8-1.2c0-2.4,0-4.7,0-7.1c0-0.7,0.2-0.9,0.9-0.9c1.1,0.1,2.4-0.4,3.1,0.2c0.6,0.6,0.2,2,0.2,3
		C479.8,44.8,479.7,47,479.7,49.2z"/>
	<path class="st0" d="M22.6,49.2c0-2.9,0-5.9,0-8.8c0-0.7,0.1-1.1,1-1c2.5,0.1,5-0.2,7.5,0.2c3.4,0.6,5.1,2.6,5.2,5.9
		c0,3.3-1.8,5.6-5,6.3C30.1,52,29,52.1,27.9,52c-0.9-0.1-1.2,0.2-1.1,1.1c0.1,1.7,0,3.3,0,5c0,0.8-0.2,0.9-0.9,0.9
		c-3.2,0-3.2,0.1-3.2-3.2C22.6,53.6,22.6,51.4,22.6,49.2z M26.8,45.7c0,0.8,0,1.5,0,2.3c0,0.5,0.1,0.7,0.7,0.7c1,0,1.9,0,2.8-0.4
		c1.4-0.5,2.1-1.9,1.7-3.5c-0.4-1.6-2.1-2.5-4.6-2c-1.2,0.3-0.3,1.5-0.6,2.3C26.7,45.3,26.8,45.5,26.8,45.7z"/>
	<path class="st0" d="M242.4,49.1c0-2.9,0-5.9,0-8.8c0-0.8,0.2-1.1,1-1c1,0.1,2.4-0.4,3,0.2c0.6,0.6,0.2,2,0.2,3c0,1.2,0,2.3,0,3.5
		c0,0.8,0.3,1,1,0.9c1.6,0,3.1,0,4.6,0.5c2.9,1,4.3,3,4.2,5.9c-0.1,2.7-1.8,4.7-4.6,5.3c-2.4,0.5-4.9,0.3-7.3,0.3c-2,0-2,0-2-2
		C242.4,54.4,242.4,51.8,242.4,49.1z M248.1,50.3c-0.5,0.3-1.5-0.5-1.5,0.7c0,1.3,0,2.6,0,3.9c0,0.4,0.1,0.7,0.6,0.7
		c1.1,0,2.2,0,3.2-0.3c1.3-0.4,1.8-1.3,1.7-2.7c-0.1-1.2-0.8-1.8-1.9-2.1C249.5,50.4,248.8,50.4,248.1,50.3z"/>
	<path class="st0" d="M172.3,82.3c0-2.9,0-5.8,0-8.7c0-0.8,0.2-1.1,1-1.1c3.1,0.1,6.2,0,9.3,0c0.8,0,1,0.2,1,1c0,2.5,0,2.5-2.5,2.5
		c-1.3,0-2.6,0-3.8,0c-0.7,0-0.9,0.2-0.9,0.9c0.1,1.1-0.3,2.5,0.2,3.2c0.6,0.7,2.1,0.2,3.2,0.2c0.9,0,1.8,0,2.6,0
		c0.5,0,0.7,0.2,0.7,0.7c0.2,2.7,0.2,2.7-2.6,2.7c-1.1,0-2.2,0-3.2,0c-0.6,0-0.9,0.1-0.9,0.8c0.1,1.2,0,2.3,0,3.5
		c0,0.7,0.3,0.8,0.8,0.8c1.8,0,3.5,0,5.3,0c0.8,0,1.1,0.1,1.1,1c0,2.5,0,2.5-2.5,2.5c-2.6,0-5.3,0-7.9,0c-0.8,0-1-0.2-1-1
		C172.4,88.2,172.3,85.2,172.3,82.3z"/>
	<path class="st0" d="M338.5,59c-1.6,0-3.1,0-4.7,0c-0.8,0-0.9-0.2-0.9-0.9c0-5.9,0-11.9,0-17.8c0-0.7,0.1-1,0.9-1
		c3.2,0,6.4,0,9.6,0c0.8,0,0.9,0.3,0.9,1c0,2.5,0,2.5-2.4,2.5c-1.3,0-2.6,0-4,0c-0.6,0-0.8,0.2-0.8,0.8c-0.2,3.5-0.2,3.5,3.3,3.5
		c0.3,0,0.6,0,1,0c2.6,0,2.6,0,2.5,2.7c0,0.6-0.2,0.8-0.8,0.8c-1.6,0-3.3,0-4.9,0c-0.7,0-1,0.2-0.9,0.9c0.1,1.1,0,2.2,0,3.3
		c0,0.6,0.2,0.8,0.8,0.8c1.8,0,3.5,0,5.3,0c0.8,0,1.1,0.1,1.1,1c0,2.4,0,2.4-2.4,2.4C340.7,59,339.6,59,338.5,59z"/>
	<path class="st0" d="M484.7,49.1c0-2.9,0-5.9,0-8.8c0-0.7,0.2-0.9,0.9-0.9c3.2,0,6.4,0,9.6,0c0.7,0,0.9,0.2,0.9,0.9
		c0,2.6,0.1,2.6-2.4,2.6c-1.3,0-2.6,0-4,0c-0.6,0-0.9,0.2-0.8,0.8c0,0.9,0,1.8,0,2.7c0,0.7,0.3,0.8,0.9,0.8c1.6,0,3.2,0,4.8,0
		c0.7,0,1.1,0.1,1.1,1c0,2.5,0,2.5-2.5,2.5c-1.2,0-2.3,0-3.5,0c-0.6,0-0.8,0.2-0.8,0.8c0,1.2,0,2.3,0,3.5c0,0.7,0.2,0.9,0.9,0.9
		c1.8,0,3.6,0,5.4,0c0.8,0,0.9,0.2,0.9,0.9c0,2.5,0,2.5-2.5,2.5c-2.6,0-5.3,0-7.9,0c-0.8,0-1-0.2-1-1
		C484.8,55.1,484.7,52.1,484.7,49.1z"/>
	<path class="st0" d="M508.8,59.3c-5.3,0.1-8.5-2.5-9.3-7.4c-0.3-2-0.3-3.9,0.1-5.8c1.2-5.1,5.5-7.8,10.8-6.9
		c1.1,0.2,2.1,0.5,3.1,0.9c0.7,0.2,0.8,0.6,0.5,1.2c-0.4,0.7-0.4,1.8-1,2.2c-0.7,0.5-1.5-0.4-2.3-0.6c-3.6-1.1-6.2,0.4-6.9,4.1
		c-0.4,1.9-0.3,3.7,0.2,5.6c0.7,2.2,2.1,3.3,4.4,3.3c1.5,0,2.9-0.3,4.3-0.8c0.7-0.2,0.8-0.1,0.8,0.6c0.1,2.8,0,3-2.8,3.5
		C510.1,59.3,509.3,59.3,508.8,59.3z"/>
	<path class="st0" d="M127.6,59.3c-5.6,0.1-8.9-2.9-9.4-8.4c-0.1-1.6-0.1-3.3,0.3-4.9c1.2-5.1,5.5-7.8,10.8-6.8
		c0.4,0.1,0.8,0.1,1.2,0.2c2.9,0.8,2.9,0.7,1.8,3.5c-0.3,0.7-0.5,0.8-1.2,0.5c-0.9-0.4-1.8-0.7-2.7-0.9c-2.5-0.3-4.4,0.7-5.3,3.1
		c-0.8,2.4-0.8,4.8,0,7.2c0.6,1.9,2.1,2.9,4.1,3c1.6,0.1,3.1-0.3,4.6-0.8c0.7-0.2,0.8-0.1,0.8,0.6c0.1,2.8,0,3-2.8,3.5
		C128.9,59.3,128.1,59.3,127.6,59.3z"/>
	<path class="st0" d="M114.8,54.9c0,0.6,0,1.1,0,1.6c0,2,0,2-2,2.5c-1.8,0.4-3.6,0.5-5.5,0.2c-3.1-0.5-5.2-2.3-6.2-5.3
		c-0.8-2.4-0.9-4.9-0.4-7.4c1.1-5.3,5.4-8.2,10.8-7.2c1,0.2,2,0.4,2.9,0.8c0.1,0,0.2,0,0.3,0.1c1.4,1.1-0.2,1.9-0.3,2.8
		c0,0.6-0.3,1-1.1,0.6c-0.8-0.4-1.7-0.7-2.6-0.9c-2.8-0.4-4.8,0.8-5.6,3.5c-0.6,2.2-0.6,4.3,0,6.5c0.6,2.1,2.1,3.2,4.3,3.3
		c0.9,0,1.8-0.1,2.6-0.3C113.1,55.4,113.9,55.1,114.8,54.9z"/>
	<path class="st0" d="M88.7,9.6c-2.8,4.2-5.6,8.5-8.4,12.7c-0.7,1-1.3,2-2,3c-0.3,0.4-0.6,0.7-1.1,0.7c-1.9,0-1.9,0.1-1.9-1.8
		c0-5.6,0-11.2,0-16.9c0-0.9,0.3-1.1,1.2-1.1c0.9,0,1.1,0.3,1,1.1c-0.1,4.8-0.1,9.6-0.1,14.5c0,0.2,0,0.4,0,1
		c0.4-0.6,0.6-0.9,0.8-1.2c3.2-4.8,6.4-9.6,9.6-14.4c0.6-0.8,1.9-1.3,2.8-0.9c0.5,0.2,0.3,0.7,0.3,1c0,4.2,0,8.4,0,12.6
		c0,1.8-0.1,3.5,0,5.3c0,1-0.5,0.9-1.1,0.9c-0.7,0-1.1,0-1.1-0.9C88.8,19.9,88.7,14.8,88.7,9.6z"/>
	<path class="st0" d="M186.2,9.5c-2.3,3.4-4.4,6.7-6.6,10c-1.2,1.9-2.5,3.7-3.7,5.6c-0.5,0.7-2.1,1.2-2.8,0.8
		c-0.4-0.2-0.3-0.6-0.3-0.8c0-6,0-12,0-17.9c0-0.9,0.4-0.9,1.1-1c0.8,0,1.1,0.1,1.1,1c-0.1,4.7,0.1,9.3-0.1,14c0,0.4,0,0.8,0,1.5
		c0.4-0.6,0.6-0.9,0.9-1.2c3.2-4.8,6.4-9.6,9.6-14.4c0.5-0.7,2.1-1.2,2.8-0.8c0.4,0.2,0.3,0.5,0.3,0.8c0,6,0,12,0,18.1
		c0,1-0.6,0.8-1.2,0.8c-0.6,0-1,0-1-0.8c0.1-4.8,0.1-9.6,0.1-14.4C186.3,10.4,186.5,10.1,186.2,9.5z"/>
	<path class="st0" d="M457.1,22.5c3-4.6,6.1-9.1,9.1-13.7c0.3-0.5,0.8-1,1-1.5c0.6-1.4,1.7-1.1,2.8-1.1c0.7,0,0.5,0.6,0.5,1
		c0,3.6,0,7.2,0,10.8c0,2.3,0,4.5,0,6.8c0,0.8-0.1,1.2-1.1,1.2c-0.9,0-1.1-0.3-1.1-1.1c0.1-4.9-0.1-9.8,0.1-14.7
		c0-0.1,0-0.3-0.1-0.7c-0.4,0.5-0.6,0.9-0.9,1.2c-3.2,4.7-6.3,9.5-9.4,14.2c-0.6,0.9-1.8,1.3-2.9,1c-0.6-0.2-0.4-0.6-0.4-1
		c0-3.3,0-6.6,0-9.9c0-2.6,0-5.3,0-7.9c0-0.9,0.3-1,1.1-1c0.7,0,1.2,0.1,1.2,1C457,12.3,457.2,17.4,457.1,22.5z"/>
	<path class="st0" d="M366.5,15.5c3.8,1.1,5,3,4.3,6.2c-0.5,2.3-2.2,3.5-4.3,3.9c-2.8,0.6-5.7,0.2-8.6,0.3c-0.8,0-0.5-0.6-0.5-1
		c0-4.9,0-9.7,0-14.6c0-1.3-0.6-3.1,0.2-3.9c0.8-0.8,2.6-0.2,3.9-0.2c1.9,0,3.8,0,5.7,0.6c2.8,0.9,4,4,2.6,6.5
		C369.1,14.5,368,15.1,366.5,15.5z M359.6,20c0,1.2,0,2.2,0,3.2c0,0.3-0.1,0.8,0.5,0.8c2,0,4.1,0.3,6.1-0.3c1.7-0.5,2.5-1.8,2.4-3.7
		c-0.1-1.7-0.9-2.7-2.6-3.1c-0.9-0.2-1.8-0.3-2.7-0.2c-1.2,0-2.7-0.4-3.4,0.2C359,17.5,359.7,19,359.6,20z M359.6,11.2
		c0,1,0,1.9,0,2.7c0,0.4-0.1,0.8,0.5,0.7c1.9,0,3.8,0.2,5.7-0.3c1.4-0.4,2.1-1.4,2.1-3.1c0-1.5-0.7-2.4-2.1-2.8c-1-0.3-2-0.3-3-0.3
		c-1.1,0-2.4-0.5-3.1,0.2C359.1,9,359.7,10.4,359.6,11.2z"/>
	<path class="st0" d="M165.4,9.5c-0.5,0.3-0.7,0.7-0.9,1c-3.2,4.8-6.4,9.6-9.6,14.4c-0.6,0.9-1.8,1.3-2.8,1c-0.6-0.2-0.3-0.7-0.3-1
		c0-3.6,0-7.3,0-10.9c0-2.3,0-4.6,0-6.9c0-0.9,0.4-1,1.1-1c0.7,0,1.2,0,1.1,1c-0.1,5.1,0.1,10.2-0.2,15.3c0.5-0.1,0.6-0.6,0.9-0.9
		c3.2-4.8,6.4-9.5,9.6-14.3c0.6-0.9,1.8-1.4,2.9-1c0.6,0.2,0.3,0.7,0.3,1c0,4.1,0,8.1,0,12.2c0,1.9-0.1,3.8,0,5.7
		c0,1-0.6,0.8-1.2,0.8c-0.6,0-1,0.1-1-0.8C165.3,19.9,165,14.7,165.4,9.5z"/>
	<path class="st0" d="M98.5,22.4c0.5-0.3,0.6-0.7,0.9-1c3.2-4.7,6.3-9.5,9.5-14.2c0.5-0.8,2-1.2,2.8-0.9c0.4,0.2,0.3,0.5,0.3,0.8
		c0,6,0,12,0,18.1c0,1-0.5,0.9-1.1,0.9c-0.7,0-1.1,0-1.1-0.9c0.1-4.8-0.1-9.6,0.2-14.5c0-0.3,0-0.7,0-1.1c-0.5,0.3-0.6,0.7-0.9,1
		c-3.2,4.8-6.4,9.6-9.6,14.4c-0.5,0.8-2,1.3-2.9,0.9c-0.4-0.2-0.3-0.4-0.3-0.7c0-6.1,0-12.2,0-18.3c0-1.1,0.7-0.7,1.2-0.7
		c0.7-0.1,1,0.2,1,0.9C98.5,12.2,98.5,17.2,98.5,22.4z"/>
	<path class="st0" d="M214.4,16c-0.1-1.1,0.1-2.2,0.3-3.3c1.1-4.6,4.4-7,9.3-6.8c4.6,0.2,7.7,3.1,8.3,7.7c0.3,2,0.2,3.9-0.2,5.8
		c-1.1,4.5-4.3,6.8-9.1,6.7c-4.4-0.1-7.5-2.7-8.4-7.1C214.5,18.1,214.3,17,214.4,16z M230.1,16.1c0-1.3-0.1-2.4-0.4-3.5
		c-0.8-3.1-2.8-4.6-6-4.7c-3.4-0.1-5.6,1.4-6.5,4.5c-0.7,2.3-0.7,4.6,0,7c0.8,3.2,3,4.8,6.3,4.8c3.3,0,5.5-1.7,6.3-5
		C230,18.1,230.1,17,230.1,16.1z"/>
	<path class="st0" d="M36,16.2c-0.1,0.8-0.1,1.6-0.2,2.4c-1.2,6.3-7,9.4-12.9,6.8c-2.6-1.1-4-3.3-4.7-6c-0.5-2.3-0.5-4.6,0-6.9
		c1.1-4.7,5-7.3,10-6.6c4.4,0.6,7.2,3.5,7.7,8C36,14.7,36,15.4,36,16.2z M33.6,16.1c-0.1-0.8-0.1-1.7-0.2-2.5
		c-0.1-0.6-0.3-1.2-0.5-1.8C31.9,9.1,30,8,27,7.9c-3,0-5.1,1.2-6,3.8c-1,2.6-1,5.2-0.3,7.9c0.9,3.1,3.1,4.7,6.3,4.6
		c3.3,0,5.4-1.7,6.2-4.9C33.5,18.2,33.6,17.2,33.6,16.1z"/>
	<path class="st0" d="M163.9,84.1c0,2.4,0,4.8,0,7.2c0,0.7-0.2,1-0.9,1c-3.3,0.1-3.3,0.1-3.3-3.2c0-4,0-8.1,0-12.1
		c0-0.8-0.2-1.1-1-1c-1.1,0.1-2.2,0-3.4,0c-0.7,0-1-0.1-1-0.9c0-2.6,0-2.6,2.6-2.6c3.8,0,7.6,0,11.4,0c0.8,0,1,0.2,1,1
		c0,2.5,0,2.5-2.4,2.5c-2.9,0-2.9,0-2.9,2.9C163.9,80.6,163.9,82.3,163.9,84.1z"/>
	<path class="st0" d="M195.4,84c0,2.4,0,4.9,0,7.3c0,0.7-0.2,0.9-0.9,0.9c-3.3,0.1-3.3,0.1-3.3-3.2c0-3.9,0-7.9,0-11.8
		c0-1-0.3-1.3-1.3-1.2c-1.1,0.1-2.2,0-3.4,0c-0.6,0-0.8-0.2-0.8-0.8c-0.1-2.7-0.1-2.7,2.5-2.7c3.8,0,7.5,0,11.3,0
		c0.8,0,1.2,0.1,1.2,1.1c0,2.4,0,2.4-2.5,2.4c-0.9,0-2.2-0.4-2.8,0.2c-0.6,0.6-0.2,1.8-0.2,2.8C195.4,80.6,195.4,82.3,195.4,84z"/>
	<path class="st0" d="M405.6,16.1c0,3,0,5.9,0,8.9c0,1-0.5,1-1.2,0.9c-0.6,0-1.2,0.1-1.2-0.9c0.1-2.5,0-4.9,0-7.4c0-0.8-0.2-1-1-1
		c-2.8,0.1-5.6,0.1-8.4,0c-0.9,0-1,0.3-1,1.1c0,2.4,0,4.9,0,7.3c0,0.8-0.3,1-1,0.9c-0.6-0.1-1.4,0.3-1.3-0.9c0-6,0-12,0-17.9
		c0-1,0.6-0.9,1.2-0.9c0.7,0,1.2,0,1.2,1c-0.1,2.2,0,4.3,0,6.5c0,0.7,0.1,1,1,1c2.8-0.1,5.6,0,8.4,0c0.8,0,1-0.2,1-1
		c-0.1-2.2,0-4.3,0-6.5c0-1.1,0.6-1,1.3-1c0.8,0,1.1,0.1,1.1,1C405.5,10.2,405.6,13.2,405.6,16.1z"/>
	<path class="st0" d="M426,16c0,2.9,0,5.9,0,8.8c0,0.9-0.3,1.1-1.1,1.1c-0.9,0-1.3-0.1-1.2-1.2c0.1-2.4,0-4.8,0-7.2
		c0-0.7-0.1-1.1-1-1c-2.8,0.1-5.7,0-8.5,0c-0.7,0-0.9,0.2-0.9,0.9c0,2.5,0,4.9,0,7.4c0,0.9-0.3,1-1.1,1c-0.7,0-1.3,0.1-1.2-1
		c0.1-5.9,0.1-11.8,0-17.7c0-1,0.4-1.1,1.2-1.1c0.8,0,1.2,0.2,1.2,1.1c-0.1,2.1,0,4.2,0,6.3c0,0.7,0.1,1,1,1c2.8-0.1,5.6-0.1,8.4,0
		c0.9,0,1.1-0.3,1-1.1c0-2.1,0-4.2,0-6.3c0-1.1,0.5-1,1.3-1c0.8,0,1.1,0.1,1.1,1C425.9,10.1,426,13.1,426,16z"/>
	<path class="st0" d="M388.7,49.1c0-2.9,0-5.9,0-8.8c0-0.7,0.2-1,0.9-1c3.6,0,7.2,0,10.8,0c0.6,0,0.8,0.1,0.9,0.8
		c0.1,2.7,0.1,2.7-2.6,2.7c-1.6,0-3.2,0-4.8,0c-0.8,0-1,0.2-1,1c0,4.7,0,9.5,0,14.2c0,0.8-0.2,1.1-1,1.1c-0.8-0.1-1.5-0.1-2.3,0
		c-0.8,0.1-0.9-0.3-0.9-1C388.7,55.1,388.7,52.1,388.7,49.1z"/>
	<path class="st0" d="M426.2,49.1c0-2.9,0-5.9,0-8.8c0-0.8,0.2-1,1-1c3.5,0,7,0,10.5,0c0.8,0,1,0.2,1,1c0,2.5,0,2.5-2.5,2.5
		c-1.6,0-3.1,0.1-4.7,0c-0.9,0-1.1,0.2-1.1,1.1c0,4.7,0,9.3,0,14c0,0.9-0.2,1.3-1.2,1.2c-1-0.1-2.3,0.4-2.9-0.2
		c-0.5-0.5-0.2-1.8-0.2-2.8C426.2,53.8,426.2,51.5,426.2,49.1z"/>
	<path class="st0" d="M148.5,6.3c-1.6,1.8-3.2,3.5-4.7,5.1c-1.1,1.2-2.2,2.5-3.3,3.6c-0.6,0.6-0.5,1,0,1.5c2.8,3,5.5,6.1,8.4,9.3
		c-1.5,0.2-2.7,0.3-3.8-1c-2.5-3-5.2-5.8-7.8-8.6c-0.4,0.3-0.2,0.7-0.2,1c0,2.6-0.1,5.3,0,7.9c0,1-0.5,0.9-1.1,0.9
		c-0.6,0-1.3,0.3-1.3-0.9c0-6,0-12,0-18c0-1.1,0.7-0.8,1.3-0.8c0.7-0.1,1.1,0,1.1,0.9c-0.1,2.8,0,5.6,0,8.6c0.6-0.6,1-1,1.3-1.4
		c2.1-2.3,4.4-4.6,6.4-7C145.9,6.1,147,6.1,148.5,6.3z"/>
	<path class="st0" d="M287.7,25.8c2.2-5.8,4.4-11.4,6.6-17c0.2-0.5,0.4-1,0.6-1.6c0.2-0.7,0.5-1.2,1.4-1.2c1,0,1.3,0.4,1.6,1.2
		c2.2,5.8,4.5,11.6,6.7,17.4c0.1,0.4,0.8,1.1,0.1,1.2c-0.7,0.1-1.7,0.6-2.2-0.5c-0.6-1.6-1.3-3.1-1.8-4.7c-0.2-0.7-0.6-1-1.4-1
		c-2,0.1-4,0.1-6,0c-0.8,0-1.1,0.2-1.4,1c-0.4,1.2-0.9,2.4-1.4,3.6C290,26,290,26,287.7,25.8z M299.6,17.6c-1.1-2.9-2.1-5.7-3.2-8.9
		c-0.9,3.2-2.2,5.9-3.1,8.9C295.4,17.6,297.5,17.6,299.6,17.6z"/>
	<path class="st0" d="M375.2,16c0-2.9,0-5.9,0-8.8c0-0.8,0.3-1,1-1c3,0,6.1,0.1,9.1,0c0.9,0,0.9,0.4,0.9,1.1c0,0.8-0.2,1-1,1
		c-2.2-0.1-4.5,0-6.7,0c-0.7,0-1.1,0.1-1,1c0.1,1.4,0.1,2.9,0,4.3c0,0.9,0.2,1.2,1.1,1.1c2.1-0.1,4.2,0,6.2,0c1,0,0.8,0.5,0.9,1.1
		c0.1,0.7-0.2,1-0.9,0.9c-2.1-0.1-4.2,0-6.4,0c-0.7,0-1,0.2-0.9,0.9c0.1,1.8,0,3.7,0,5.5c0,0.7,0.2,0.9,0.9,0.9c2.3,0,4.6,0,6.8,0
		c0.9,0,1,0.4,1,1.1c0,0.8-0.3,1-1,1c-3,0-6,0-9,0c-0.9,0-1.1-0.3-1-1.1C375.2,21.9,375.2,19,375.2,16z"/>
	<path class="st0" d="M2.2,16c0-2.9,0-5.8,0-8.7c0-0.8,0.1-1.1,1-1.1C5.6,6.3,8,6,10.4,6.5c2.7,0.6,4.1,2.2,4.3,4.8
		c0.3,2.7-1,4.9-3.3,6c-1.8,0.8-3.7,0.9-5.6,0.8c-1,0-1.4,0.2-1.3,1.3c0.1,1.9,0,3.7,0.1,5.6c0,0.9-0.5,0.9-1.1,0.9
		c-0.6,0-1.3,0.2-1.2-0.9C2.2,22,2.2,19,2.2,16z M4.5,12.2c0,1.1,0,2.2,0,3.2c0,0.4,0,0.8,0.6,0.8c1.6,0,3.3,0.1,4.9-0.4
		c1.7-0.6,2.5-1.9,2.4-3.8c-0.1-1.8-0.9-2.9-2.6-3.4C8.2,8,6.6,8.2,5,8.2c-0.6,0-0.5,0.4-0.5,0.8C4.5,10,4.5,11.1,4.5,12.2z"/>
	<path class="st0" d="M307.9,16.1c0-3,0-6,0-9c0-0.7,0.2-1,0.9-0.9c2.5,0.1,5-0.2,7.4,0.4c2.4,0.6,3.8,2.1,4.1,4.4
		c0.4,2.8-0.7,5-2.8,6.2c-1.8,1-3.7,1-5.7,1c-1.9,0-1.6-0.2-1.6,1.7c0,1.7-0.1,3.4,0,5.1c0,1-0.5,1-1.2,1c-0.7,0-1.2,0.1-1.2-0.9
		C308,22,307.9,19,307.9,16.1z M310.2,12.1c0,1.1,0,2.2,0,3.3c0,0.4,0,0.7,0.5,0.7c1.6,0,3.3,0.1,4.9-0.4c1.7-0.6,2.5-1.8,2.4-3.9
		c0-1.8-0.9-2.9-2.6-3.4c-1.5-0.4-3.1-0.2-4.6-0.3c-0.5,0-0.5,0.3-0.5,0.7C310.2,10,310.2,11,310.2,12.1z"/>
	<path class="st0" d="M431.4,16c0-3,0-5.9,0-8.9c0-1,0.5-1,1.2-1c0.7,0,1.2,0,1.1,1c-0.1,2,0,3.9,0,5.9c0,1.6,0,1.5,1.5,1.6
		c1.6,0,3.2-0.1,4.8,0.3c2.7,0.7,4.1,2.5,4.1,5.3c0,2.8-1.5,4.8-4.1,5.4c-2.6,0.6-5.3,0.2-8,0.3c-0.7,0-0.5-0.6-0.5-1
		C431.4,22,431.4,19,431.4,16z M433.7,20.2c0,1,0,2,0,3c0,0.4,0,0.8,0.5,0.8c1.7,0,3.5,0.2,5.2-0.4c1.6-0.5,2.4-1.9,2.3-3.7
		c-0.1-1.7-0.9-2.6-2.7-3c-1.2-0.3-2.5-0.2-3.7-0.2c-1.7,0-1.7,0-1.7,1.6C433.7,18.9,433.7,19.6,433.7,20.2z"/>
	<path class="st0" d="M252.9,23.6c1.1,0.3,1.9,0.5,2.9,0.5c1.7-0.1,3.2-1.3,3.7-2.8c0.2-0.5-0.1-0.8-0.3-1.2
		c-2.2-4.2-4.3-8.3-6.5-12.5c-0.2-0.4-0.5-0.7-0.5-1.2c2.2-0.3,2.2-0.3,3.1,1.5c1.8,3.6,3.7,7.2,5.6,10.9c1.4-3.2,2.8-6.3,4.1-9.5
		c0.4-0.8,0.7-1.6,1-2.4c0.2-0.4,0.4-0.6,0.9-0.6c1.9-0.1,1.9-0.1,1.2,1.6c-1.9,4.2-3.8,8.5-5.7,12.7c-0.4,0.9-0.8,1.7-1.3,2.5
		c-1.6,2.6-3.8,3.6-6.8,3.1c-1-0.2-1.5-0.5-1.3-1.6C252.9,24.2,252.9,24,252.9,23.6z"/>
	<path class="st0" d="M66.3,26.2c-5.5,0-8.7-2.8-9.3-8.2c-0.2-1.8-0.1-3.7,0.3-5.4c1-3.7,3.6-6,7.4-6.5c2.1-0.3,4.2,0,6.2,0.7
		c0.4,0.1,1,0.3,0.5,0.9c-0.4,0.4-0.1,1.7-1.3,1.2C68.8,8.2,67.4,7.9,66,8c-2.9,0.1-5.1,1.6-6,4.3c-1,2.6-0.9,5.3,0.1,8
		c0.9,2.3,2.6,3.6,5.1,3.9c1.6,0.2,3.2,0,4.8-0.4c0.4-0.1,1-0.7,1.1,0.2c0.1,0.6,0.4,1.5-0.7,1.7C68.9,26,67.5,26.2,66.3,26.2z"/>
	<path class="st0" d="M118.8,16.1c0.1,0.7,0.1,1.5,0.2,2.3c0.9,4.6,4.2,6.6,9.3,5.6c0.4-0.1,0.7-0.2,1.1-0.2c0.4,0,1.1-0.7,1.2,0.2
		c0.1,0.7,0.3,1.5-0.9,1.7c-2.3,0.5-4.6,0.7-6.9,0.2c-2.7-0.6-4.6-2.3-5.6-4.9c-1.1-3-1.2-6.1-0.2-9.1c1.2-3.3,3.6-5.3,7.1-5.8
		c2.1-0.3,4.1-0.1,6.1,0.6c0.4,0.1,1.2,0.1,0.7,1c-0.3,0.5-0.2,1.6-1.4,1.1c-1.6-0.8-3.4-0.9-5.2-0.6c-3,0.5-5.1,2.9-5.5,6.2
		C118.8,14.8,118.8,15.4,118.8,16.1z"/>
	<path class="st0" d="M41.8,16.3c0,0.5,0,1.3,0.2,2c0.9,4.7,4.1,6.7,9.2,5.8c0.4-0.1,0.8-0.2,1.2-0.2c0.4,0,1-0.7,1.1,0.1
		c0.1,0.6,0.4,1.5-0.7,1.8c-2.4,0.6-4.8,0.8-7.2,0.2c-2.6-0.7-4.4-2.4-5.3-4.9c-1-2.8-1.2-5.7-0.3-8.6C41,8.7,43.5,6.6,47.3,6
		c2.1-0.3,4.2,0,6.2,0.7C54,6.9,54.4,7.1,54,7.7c-0.4,0.4-0.1,1.6-1.2,1.1C51.7,8.3,50.6,8,49.4,8c-4.3-0.1-7.1,2.4-7.5,6.7
		C41.9,15.1,41.8,15.6,41.8,16.3z"/>
	<path class="st0" d="M332.9,26.2c-5.6,0-8.7-3-9.3-8.9c-0.1-1.4,0-2.8,0.3-4.2c1-4.4,4-6.9,8.5-7.2c1.8-0.1,3.5,0.1,5.2,0.8
		c0.4,0.1,1.2,0.1,0.7,0.9c-0.3,0.5-0.1,1.7-1.4,1.1c-1.7-0.8-3.5-1-5.4-0.6c-2.6,0.5-4.2,2.1-4.9,4.6c-0.8,2.5-0.7,5,0.2,7.4
		c0.9,2.4,2.6,3.7,5.2,4c1.7,0.2,3.3,0,4.9-0.4c0.3-0.1,0.9-0.5,1,0.1c0.1,0.6,0.5,1.5-0.5,1.8C335.7,26,334.3,26.2,332.9,26.2z"/>
	<path class="st0" d="M236,16.1c0-4.7,2-8.2,5.6-9.5c2.8-1,5.6-0.8,8.4,0.2c0.4,0.2,0.9,0.3,0.5,0.9c-0.4,0.4-0.1,1.6-1.3,1.1
		c-1.2-0.5-2.5-0.8-3.8-0.8c-3.3,0-5.6,1.7-6.5,4.8c-0.8,2.5-0.7,5,0.2,7.4c0.9,2.4,2.7,3.7,5.2,4c1.6,0.2,3.2,0,4.8-0.4
		c0.4-0.1,1-0.5,1,0.1c0.1,0.6,0.5,1.3-0.5,1.7c-6.7,2.9-13.3-1.2-13.6-8.4C235.9,16.8,236,16.4,236,16.1z"/>
	<path class="st0" d="M345.8,17.1c0-2.7,0-5.3,0-8c0-0.7-0.2-0.9-0.9-0.9c-1.5,0-3,0-4.5,0c-0.9,0-0.8-0.5-0.8-1
		c0-0.6-0.1-1.1,0.8-1.1c4.4,0,8.7,0,13.1,0c0.9,0,0.9,0.4,0.8,1c0,0.6,0.1,1.1-0.8,1c-1.4-0.1-2.7,0-4.1,0c-1-0.1-1.3,0.2-1.3,1.3
		c0.1,5.1,0,10.2,0.1,15.3c0,0.9-0.2,1.2-1.2,1.2c-1,0-1.2-0.3-1.1-1.2C345.8,22.2,345.8,19.6,345.8,17.1z"/>
	<path class="st0" d="M201,16c0-3,0-5.9,0-8.9c0-0.8,0.2-1,1-1c3.1,0,6.2,0.1,9.2,0c0.9,0,0.9,0.5,0.9,1.1c0,0.6,0,1-0.9,1
		c-2.3-0.1-4.6,0-7,0c-0.8,0-1,0.2-1,1c0,5.2,0,10.4,0,15.5c0,1-0.3,1.2-1.2,1.2c-1,0-1.2-0.3-1.2-1.2C201,21.8,201,18.9,201,16z"/>
	<path class="st0" d="M449.4,16.1c0,2.9,0,5.8,0,8.7c0,1-0.3,1.1-1.2,1.1c-0.7,0-1.2,0-1.2-1c0.1-5.9,0.1-11.9,0-17.8
		c0-1,0.4-1,1.1-1c0.8,0,1.3,0,1.2,1C449.4,10.2,449.4,13.2,449.4,16.1z"/>
	<path class="st0" d="M568.5,37.7c-1.3,0-2.5-0.1-3.6-0.5c-1.7-0.6-2.5-1.9-2.7-3.6c-0.1-0.5,0.1-0.7,0.6-0.7c0.4,0,0.9,0,1.3,0
		c0.9,0,1.8-0.2,2,1.2c0.2,1.3,1.5,1.2,2.6,1.2c1.2,0,2.3-0.3,2.6-1.5c0.2-0.9,0.7-1,1.4-1c0.3,0,0.6,0,0.8,0c1.9,0,2,0.2,1.2,2
		c-0.7,1.5-1.9,2.2-3.4,2.6C570.4,37.6,569.4,37.7,568.5,37.7z"/>
	<path class="st0" d="M305.4,49.9c0.9,0,1.8,0,2.8,0c0.6,0,0.8,0.2,0.8,0.8c0.1,2.6,0.1,2.6-2.5,2.6c-1.3,0-2.6,0-4,0
		c-0.6,0-0.8-0.2-0.8-0.8c-0.1-2.6-0.1-2.6,2.5-2.6C304.6,49.9,305,49.9,305.4,49.9z"/>
	<path class="st0" d="M181.1,4.2c-3.1,0-4.5-0.8-5-2.8c-0.1-0.4-0.6-1,0.1-1.3c0.8-0.4,1.7,0.1,1.9,0.8c0.4,1.2,1.1,1.7,2.7,1.7
		c1.5,0,2.4-0.5,2.8-1.7c0.3-0.7,1.4-1.2,2-0.9c0.4,0.2,0.2,0.5,0.2,0.7c-0.2,1.7-1.5,3-3.5,3.3C181.9,4.2,181.3,4.2,181.1,4.2z"/>
	<path class="st0" d="M104.5,4.2c-0.8,0-1.7,0-2.5-0.3c-1.1-0.4-1.9-1.1-2.2-2.3c-0.1-0.5-0.6-1.1-0.1-1.4c0.4-0.3,1.1-0.1,1.6-0.1
		c0.5,0,0.3,0.5,0.4,0.7c0.4,1.3,1,1.8,2.6,1.8c1.6,0.1,2.5-0.5,3-1.7c0.3-0.7,1.2-1.1,2-0.9c0.4,0.2,0.2,0.4,0.2,0.7
		c-0.3,1.9-1.6,3.1-3.7,3.4C105.3,4.2,104.9,4.2,104.5,4.2z"/>
	<path class="st0" d="M463.3,4.2c-3.1,0-4.5-0.8-5-2.7c-0.1-0.4-0.6-1.2,0.2-1.3c0.6-0.1,1.6-0.6,1.8,0.8c0.2,1.3,1,1.7,2.6,1.7
		c1.5,0,2.5-0.5,2.9-1.7c0.3-0.8,1.3-1.2,2-0.9c0.4,0.2,0.2,0.5,0.2,0.7c-0.2,1.8-1.6,3-3.5,3.3C464,4.2,463.5,4.2,463.3,4.2z"/>
	<path class="st2" d="M150.8,44.4c0-0.1,0.1-0.1,0.1-0.2c0,0,0,0.1,0.1,0.1C150.9,44.3,150.9,44.3,150.8,44.4
		C150.8,44.4,150.8,44.4,150.8,44.4z"/>
	<path class="st2" d="M209.8,42.5c0.8,2.7,1.6,5.2,2.4,7.7c0.1,0.5,0,0.6-0.5,0.6c-1.1,0-2.2-0.1-3.4,0c-0.9,0-1.1-0.1-0.8-1
		C208.3,47.5,209,45.1,209.8,42.5z"/>
</g>
</svg>
