<?xml version="1.0" encoding="utf-8"?>
<!-- Generator: Adobe Illustrator 26.0.0, SVG Export Plug-In . SVG Version: 6.00 Build 0)  -->
<svg version="1.1" id="Слой_1" xmlns="http://www.w3.org/2000/svg" xmlns:xlink="http://www.w3.org/1999/xlink" x="0px" y="0px"
	 viewBox="0 0 1920 1080" style="enable-background:new 0 0 1920 1080;" xml:space="preserve">
<g>
	<path d="M759.2,15.8c38.9,39,77.8,78.1,116.7,117c133.1,133.1,266.2,266.3,399.4,399.3c2.9,2.9,6.5,4.9,8.8,6.6
		c-176.5,176.5-351.4,351.4-525.5,525.5c-39.1-39.1-79.6-79.7-120.4-120.6C771,810.9,905.1,676.9,1039.2,542.7
		C904.4,407.9,770.4,273.9,635.8,139.4c3.5-3.8,5.9-6.5,8.5-9c35.3-35.3,70.7-70.7,106-106c2.6-2.6,4.6-5.7,6.8-8.5
		C757.9,15.8,758.5,15.8,759.2,15.8z"/>
</g>
</svg>
