<?xml version="1.0" encoding="utf-8"?>
<!-- Generator: Adobe Illustrator 26.0.0, SVG Export Plug-In . SVG Version: 6.00 Build 0)  -->
<svg version="1.1" id="Слой_1" xmlns="http://www.w3.org/2000/svg" xmlns:xlink="http://www.w3.org/1999/xlink" x="0px" y="0px"
	 viewBox="0 0 1920 1080" style="enable-background:new 0 0 1920 1080;" xml:space="preserve">
<style type="text/css">
	.st0{fill:#FFFFFF;}
</style>
<g>
	<path class="st0" d="M1033.4,647.5c-93.1,71.4-217.7,47.9-282.1-35.9c-62.4-81.1-53.1-196,22.1-267.7c72.6-69.2,188.9-72,265.4-7.1
		c79.6,67.6,96.8,187.1,28.2,277c1.8,1.1,4.1,2,5.7,3.6c42.7,42.6,85.4,85.4,128.1,128c7.6,7.5,11.1,16.1,8.2,26.5
		c-5,18.2-27.3,24.2-41.3,11.2c-8.3-7.7-16.1-16-24.1-24c-35.5-35.5-71-71-106.5-106.5C1035.7,651,1034.6,649.1,1033.4,647.5z
		 M759.9,490.1c0.3,82.7,67.4,149.7,150,149.8c83,0,150.1-67.2,150-150.2c-0.1-82.7-67.3-149.9-149.8-149.9
		C827.5,339.7,759.7,407.6,759.9,490.1z"/>
</g>
</svg>
