<?xml version="1.0" encoding="utf-8"?>
<!-- Generator: Adobe Illustrator 26.0.0, SVG Export Plug-In . SVG Version: 6.00 Build 0)  -->
<svg version="1.1" id="Слой_1" xmlns="http://www.w3.org/2000/svg" xmlns:xlink="http://www.w3.org/1999/xlink" x="0px" y="0px"
	 viewBox="0 0 292 47.7" style="enable-background:new 0 0 292 47.7;" xml:space="preserve">
<style type="text/css">
	.st0{fill:#D63447;}
	.st1{fill:#135AAE;}
</style>
<path class="st0" d="M113.9,39.6l-8,8.1h8V39.6z"/>
<path class="st1" d="M3.8,3.1c1.3,0,2.2,0.3,2.8,0.8C7.3,4.3,7.6,5.1,7.6,6c0,0.4-0.1,0.8-0.2,1.2C7.2,7.6,7,7.9,6.7,8.2
	C6.4,8.5,6,8.7,5.5,8.9C5,9.1,4.3,9.2,3.6,9.2H2.4v3.9H1.2v-10H3.8z M3.7,4.1H2.4v4.1h1.1c0.6,0,1.2-0.1,1.6-0.2
	c0.4-0.1,0.7-0.4,1-0.7C6.3,7,6.4,6.6,6.4,6.1c0-0.7-0.2-1.2-0.6-1.5C5.3,4.2,4.6,4.1,3.7,4.1z M18.3,8.1c0,0.8-0.1,1.5-0.3,2.1
	c-0.2,0.6-0.5,1.2-0.9,1.6c-0.4,0.5-0.9,0.8-1.4,1c-0.6,0.2-1.2,0.4-2,0.4c-0.8,0-1.5-0.1-2-0.4c-0.6-0.2-1.1-0.6-1.4-1.1
	c-0.4-0.5-0.7-1-0.9-1.6C9.2,9.5,9.1,8.8,9.1,8.1c0-1,0.2-1.9,0.5-2.7C10,4.6,10.5,4,11.2,3.6c0.7-0.4,1.5-0.6,2.6-0.6
	c1,0,1.8,0.2,2.5,0.6c0.7,0.4,1.2,1,1.5,1.8C18.1,6.1,18.3,7,18.3,8.1z M10.4,8.1c0,0.8,0.1,1.6,0.4,2.2c0.2,0.6,0.6,1.1,1.1,1.4
	c0.5,0.3,1.1,0.5,1.9,0.5c0.8,0,1.4-0.2,1.9-0.5c0.5-0.3,0.9-0.8,1.1-1.4c0.2-0.6,0.4-1.4,0.4-2.2c0-1.3-0.3-2.3-0.8-3
	C15.7,4.3,14.9,4,13.8,4c-0.8,0-1.4,0.2-1.9,0.5c-0.5,0.3-0.9,0.8-1.1,1.4C10.5,6.5,10.4,7.2,10.4,8.1z M24.8,4
	c-0.6,0-1,0.1-1.5,0.3c-0.4,0.2-0.8,0.5-1.1,0.8c-0.3,0.4-0.5,0.8-0.7,1.3c-0.2,0.5-0.2,1.1-0.2,1.7c0,0.8,0.1,1.6,0.4,2.2
	c0.3,0.6,0.7,1.1,1.2,1.4c0.5,0.3,1.2,0.5,2,0.5c0.4,0,0.9,0,1.3-0.1c0.4-0.1,0.8-0.2,1.2-0.3v1c-0.4,0.1-0.7,0.2-1.1,0.3
	c-0.4,0.1-0.9,0.1-1.4,0.1c-1,0-1.9-0.2-2.5-0.6c-0.7-0.4-1.2-1-1.5-1.8C20.2,10,20,9.1,20,8.1c0-0.8,0.1-1.4,0.3-2.1
	c0.2-0.6,0.5-1.2,0.9-1.6c0.4-0.5,0.9-0.8,1.5-1.1c0.6-0.3,1.3-0.4,2.1-0.4c0.5,0,1,0.1,1.5,0.2c0.5,0.1,0.9,0.2,1.3,0.4l-0.5,1
	c-0.3-0.1-0.7-0.3-1.1-0.4C25.7,4,25.3,4,24.8,4z M33.6,4c-0.6,0-1,0.1-1.5,0.3c-0.4,0.2-0.8,0.5-1.1,0.8c-0.3,0.4-0.5,0.8-0.7,1.3
	s-0.2,1.1-0.2,1.7c0,0.8,0.1,1.6,0.4,2.2c0.3,0.6,0.7,1.1,1.2,1.4c0.5,0.3,1.2,0.5,2,0.5c0.4,0,0.9,0,1.3-0.1
	c0.4-0.1,0.8-0.2,1.2-0.3v1c-0.4,0.1-0.7,0.2-1.1,0.3c-0.4,0.1-0.9,0.1-1.4,0.1c-1,0-1.9-0.2-2.6-0.6c-0.7-0.4-1.2-1-1.5-1.8
	C29,10,28.9,9.1,28.9,8.1c0-0.8,0.1-1.4,0.3-2.1c0.2-0.6,0.5-1.2,0.9-1.6c0.4-0.5,0.9-0.8,1.5-1.1c0.6-0.3,1.3-0.4,2.1-0.4
	c0.5,0,1,0.1,1.5,0.2c0.5,0.1,0.9,0.2,1.3,0.4l-0.5,1c-0.3-0.1-0.7-0.3-1.1-0.4C34.5,4,34.1,4,33.6,4z M38.2,3.1h1.1v5.8
	c0,0.2,0,0.5,0,0.7c0,0.3,0,0.5,0,0.8c0,0.2,0,0.5,0,0.7c0,0.2,0,0.4,0,0.5h0.1l5.6-8.4h1.3v10H45V7.4c0-0.2,0-0.5,0-0.8
	c0-0.3,0-0.5,0-0.8c0-0.3,0-0.5,0-0.7c0-0.2,0-0.4,0-0.5h-0.1l-5.6,8.4h-1.3V3.1z M48.8,3.1h1.1v5.8c0,0.2,0,0.5,0,0.7
	c0,0.3,0,0.5,0,0.8c0,0.2,0,0.5,0,0.7c0,0.2,0,0.4,0,0.5h0.1l5.6-8.4h1.3v10h-1.1V7.4c0-0.2,0-0.5,0-0.8c0-0.3,0-0.5,0-0.8
	c0-0.3,0-0.5,0-0.7c0-0.2,0-0.4,0-0.5h-0.1l-5.6,8.4h-1.3V3.1z M55.5,0c0,0.5-0.2,0.8-0.3,1.2c-0.2,0.3-0.5,0.5-0.8,0.7
	C54,2,53.5,2.1,52.9,2.1c-0.6,0-1.1-0.1-1.4-0.2c-0.4-0.2-0.6-0.4-0.8-0.7c-0.2-0.3-0.3-0.7-0.3-1.2h1.1c0.1,0.5,0.2,0.8,0.4,1
	c0.2,0.2,0.6,0.3,1.1,0.3c0.4,0,0.8-0.1,1-0.3c0.3-0.2,0.4-0.5,0.5-1H55.5z M63.7,4c-0.6,0-1,0.1-1.5,0.3c-0.4,0.2-0.8,0.5-1.1,0.8
	c-0.3,0.4-0.5,0.8-0.7,1.3c-0.2,0.5-0.2,1.1-0.2,1.7c0,0.8,0.1,1.6,0.4,2.2c0.3,0.6,0.7,1.1,1.2,1.4c0.5,0.3,1.2,0.5,2,0.5
	c0.4,0,0.9,0,1.3-0.1c0.4-0.1,0.8-0.2,1.2-0.3v1c-0.4,0.1-0.7,0.2-1.1,0.3c-0.4,0.1-0.9,0.1-1.4,0.1c-1,0-1.9-0.2-2.6-0.6
	c-0.7-0.4-1.2-1-1.5-1.8c-0.3-0.8-0.5-1.7-0.5-2.7c0-0.8,0.1-1.4,0.3-2.1c0.2-0.6,0.5-1.2,0.9-1.6c0.4-0.5,0.9-0.8,1.5-1.1
	c0.6-0.3,1.3-0.4,2.1-0.4c0.5,0,1,0.1,1.5,0.2c0.5,0.1,0.9,0.2,1.3,0.4l-0.5,1c-0.3-0.1-0.7-0.3-1.1-0.4C64.6,4,64.2,4,63.7,4z
	 M75.4,13.1H74L69.4,8v5.1h-1.2v-10h1.2v4.8l4.5-4.8h1.3l-4.4,4.9L75.4,13.1z M76.8,3.1h1.1v5.8c0,0.2,0,0.5,0,0.7
	c0,0.3,0,0.5,0,0.8c0,0.2,0,0.5,0,0.7c0,0.2,0,0.4,0,0.5h0.1l5.6-8.4h1.3v10h-1.1V7.4c0-0.2,0-0.5,0-0.8c0-0.3,0-0.5,0-0.8
	c0-0.3,0-0.5,0-0.7c0-0.2,0-0.4,0-0.5h-0.1l-5.6,8.4h-1.3V3.1z M87.5,3.1h1.1v5.8c0,0.2,0,0.5,0,0.7c0,0.3,0,0.5,0,0.8
	c0,0.2,0,0.5,0,0.7c0,0.2,0,0.4,0,0.5h0.1l5.6-8.4h1.3v10h-1.1V7.4c0-0.2,0-0.5,0-0.8c0-0.3,0-0.5,0-0.8c0-0.3,0-0.5,0-0.7
	c0-0.2,0-0.4,0-0.5h-0.1l-5.6,8.4h-1.3V3.1z M94.1,0c0,0.5-0.2,0.8-0.3,1.2c-0.2,0.3-0.5,0.5-0.8,0.7c-0.4,0.2-0.8,0.2-1.4,0.2
	c-0.6,0-1.1-0.1-1.4-0.2c-0.4-0.2-0.6-0.4-0.8-0.7C89.2,0.9,89.1,0.5,89,0h1.1c0.1,0.5,0.2,0.8,0.4,1c0.2,0.2,0.6,0.3,1.1,0.3
	c0.4,0,0.8-0.1,1-0.3c0.3-0.2,0.4-0.5,0.5-1H94.1z M107.3,3.1v1h-4.4v9h-1.2v-10H107.3z M117.7,8.1c0,0.8-0.1,1.5-0.3,2.1
	c-0.2,0.6-0.5,1.2-0.9,1.6c-0.4,0.5-0.9,0.8-1.4,1c-0.6,0.2-1.2,0.4-2,0.4c-0.8,0-1.5-0.1-2-0.4c-0.6-0.2-1.1-0.6-1.4-1.1
	c-0.4-0.5-0.7-1-0.9-1.6c-0.2-0.6-0.3-1.3-0.3-2.1c0-1,0.2-1.9,0.5-2.7c0.3-0.8,0.8-1.4,1.5-1.8c0.7-0.4,1.5-0.6,2.6-0.6
	c1,0,1.8,0.2,2.5,0.6c0.7,0.4,1.2,1,1.5,1.8C117.5,6.1,117.7,7,117.7,8.1z M109.7,8.1c0,0.8,0.1,1.6,0.4,2.2
	c0.2,0.6,0.6,1.1,1.1,1.4c0.5,0.3,1.1,0.5,1.9,0.5c0.8,0,1.4-0.2,1.9-0.5c0.5-0.3,0.9-0.8,1.1-1.4c0.2-0.6,0.4-1.4,0.4-2.2
	c0-1.3-0.3-2.3-0.8-3c-0.5-0.7-1.4-1.1-2.5-1.1c-0.8,0-1.4,0.2-1.9,0.5c-0.5,0.3-0.9,0.8-1.1,1.4C109.9,6.5,109.7,7.2,109.7,8.1z
	 M124.2,4c-0.6,0-1,0.1-1.5,0.3c-0.4,0.2-0.8,0.5-1.1,0.8c-0.3,0.4-0.5,0.8-0.7,1.3s-0.2,1.1-0.2,1.7c0,0.8,0.1,1.6,0.4,2.2
	c0.3,0.6,0.7,1.1,1.2,1.4c0.5,0.3,1.2,0.5,2,0.5c0.4,0,0.9,0,1.3-0.1c0.4-0.1,0.8-0.2,1.2-0.3v1c-0.4,0.1-0.7,0.2-1.1,0.3
	c-0.4,0.1-0.9,0.1-1.4,0.1c-1,0-1.9-0.2-2.6-0.6c-0.7-0.4-1.2-1-1.5-1.8c-0.3-0.8-0.5-1.7-0.5-2.7c0-0.8,0.1-1.4,0.3-2.1
	c0.2-0.6,0.5-1.2,0.9-1.6c0.4-0.5,0.9-0.8,1.5-1.1c0.6-0.3,1.3-0.4,2.1-0.4c0.5,0,1,0.1,1.5,0.2c0.5,0.1,0.9,0.2,1.3,0.4l-0.5,1
	c-0.3-0.1-0.7-0.3-1.1-0.4C125,4,124.6,4,124.2,4z M136,3.1l-3.3,7.2c-0.3,0.6-0.6,1.2-0.9,1.6c-0.3,0.4-0.6,0.7-1,1
	s-0.9,0.3-1.5,0.3c-0.3,0-0.5,0-0.7-0.1c-0.2,0-0.4-0.1-0.6-0.1v-1.2c0.2,0.1,0.4,0.2,0.6,0.2c0.2,0,0.4,0.1,0.7,0.1
	c0.4,0,0.7-0.1,0.9-0.2c0.2-0.1,0.5-0.3,0.7-0.5c0.2-0.2,0.4-0.5,0.5-0.9l-3.9-7.4h1.3l2.8,5.6c0,0.1,0.1,0.1,0.1,0.2
	c0,0.1,0.1,0.2,0.1,0.3c0,0.1,0.1,0.2,0.1,0.3h0c0-0.1,0.1-0.1,0.1-0.2c0-0.1,0.1-0.2,0.1-0.3c0-0.1,0.1-0.2,0.1-0.2l2.5-5.6H136z
	 M144,3.1v9h1.2v3.7h-1.1v-2.6h-6.9v2.6h-1.1V12h0.8c0.3-0.6,0.7-1.2,1-2c0.3-0.7,0.6-1.5,0.8-2.3c0.2-0.8,0.4-1.6,0.6-2.4
	c0.1-0.8,0.2-1.6,0.3-2.3H144z M142.9,4.1h-2.4c0,0.6-0.1,1.2-0.3,1.9c-0.1,0.7-0.3,1.4-0.5,2.1c-0.2,0.7-0.5,1.4-0.7,2.1
	c-0.3,0.7-0.6,1.3-0.9,1.8h4.8V4.1z M153.2,13.1L152,9.9h-4l-1.2,3.2h-1.2l3.9-10h1l3.9,10H153.2z M151.7,8.9l-1.2-3.2
	c0-0.1-0.1-0.2-0.1-0.4c-0.1-0.2-0.1-0.4-0.2-0.6c-0.1-0.2-0.1-0.4-0.2-0.5c0,0.2-0.1,0.4-0.1,0.6c-0.1,0.2-0.1,0.4-0.2,0.5
	c-0.1,0.2-0.1,0.3-0.1,0.4l-1.2,3.2H151.7z M158.4,3.1c1.3,0,2.2,0.3,2.8,0.8c0.6,0.5,0.9,1.2,0.9,2.2c0,0.4-0.1,0.8-0.2,1.2
	c-0.1,0.4-0.4,0.7-0.7,1c-0.3,0.3-0.7,0.5-1.2,0.7c-0.5,0.2-1.1,0.2-1.8,0.2H157v3.9h-1.2v-10H158.4z M158.3,4.1H157v4.1h1.1
	c0.6,0,1.2-0.1,1.6-0.2c0.4-0.1,0.7-0.4,1-0.7c0.2-0.3,0.3-0.7,0.3-1.2c0-0.7-0.2-1.2-0.6-1.5C159.9,4.2,159.2,4.1,158.3,4.1z
	 M168.5,4c-0.6,0-1,0.1-1.5,0.3c-0.4,0.2-0.8,0.5-1.1,0.8c-0.3,0.4-0.5,0.8-0.7,1.3C165,6.9,165,7.4,165,8.1c0,0.8,0.1,1.6,0.4,2.2
	c0.3,0.6,0.7,1.1,1.2,1.4c0.5,0.3,1.2,0.5,2,0.5c0.4,0,0.9,0,1.3-0.1c0.4-0.1,0.8-0.2,1.2-0.3v1c-0.4,0.1-0.7,0.2-1.1,0.3
	c-0.4,0.1-0.9,0.1-1.4,0.1c-1,0-1.9-0.2-2.6-0.6c-0.7-0.4-1.2-1-1.5-1.8c-0.3-0.8-0.5-1.7-0.5-2.7c0-0.8,0.1-1.4,0.3-2.1
	c0.2-0.6,0.5-1.2,0.9-1.6c0.4-0.5,0.9-0.8,1.5-1.1c0.6-0.3,1.3-0.4,2.1-0.4c0.5,0,1,0.1,1.5,0.2c0.5,0.1,0.9,0.2,1.3,0.4l-0.5,1
	c-0.3-0.1-0.7-0.3-1.1-0.4C169.4,4,169,4,168.5,4z M176.1,13.1H175v-9h-3.1v-1h7.4v1h-3.1V13.1z M180.8,3.1h2.8
	c1.2,0,2.2,0.2,2.8,0.6c0.6,0.4,0.9,1,0.9,1.9c0,0.4-0.1,0.7-0.2,1c-0.1,0.3-0.4,0.6-0.6,0.8c-0.3,0.2-0.6,0.3-1,0.4v0.1
	c0.4,0.1,0.8,0.2,1.2,0.4s0.6,0.4,0.8,0.8c0.2,0.3,0.3,0.7,0.3,1.3c0,0.6-0.1,1.1-0.4,1.6c-0.3,0.4-0.7,0.7-1.2,1
	c-0.5,0.2-1.1,0.3-1.8,0.3h-3.4V3.1z M181.9,7.4h1.9c0.9,0,1.5-0.1,1.8-0.4c0.3-0.3,0.5-0.7,0.5-1.3c0-0.6-0.2-1-0.6-1.2
	c-0.4-0.3-1-0.4-1.9-0.4h-1.7V7.4z M181.9,8.4v3.7h2.1c0.9,0,1.5-0.2,1.9-0.5c0.4-0.4,0.6-0.8,0.6-1.4c0-0.4-0.1-0.7-0.3-1
	c-0.2-0.3-0.4-0.5-0.8-0.6c-0.4-0.1-0.9-0.2-1.5-0.2H181.9z M195.4,13.1h-5.6v-10h5.6v1H191v3.2h4.1v1H191v3.7h4.4V13.1z
	 M205.2,13.1H204V8.4h-5.2v4.7h-1.2v-10h1.2v4.3h5.2V3.1h1.2V13.1z M215.5,13.1h-1.2V8.4h-5.2v4.7h-1.2v-10h1.2v4.3h5.2V3.1h1.2
	V13.1z M218.3,13.1v-10h1.2v4.3h1.6c0.9,0,1.6,0.1,2.2,0.4c0.5,0.2,0.9,0.6,1.1,1c0.2,0.4,0.3,0.9,0.3,1.4c0,0.9-0.3,1.6-0.8,2.1
	c-0.6,0.5-1.4,0.8-2.6,0.8H218.3z M219.4,12.1h1.6c0.8,0,1.4-0.2,1.8-0.5c0.4-0.3,0.6-0.8,0.6-1.4c0-0.5-0.1-0.8-0.3-1.1
	c-0.2-0.3-0.5-0.5-0.9-0.6c-0.4-0.1-0.9-0.2-1.4-0.2h-1.5V12.1z M226.2,13.1v-10h1.2v10H226.2z M230.2,3.1h1.1v5.8
	c0,0.2,0,0.5,0,0.7c0,0.3,0,0.5,0,0.8c0,0.2,0,0.5,0,0.7c0,0.2,0,0.4,0,0.5h0.1l5.6-8.4h1.3v10H237V7.4c0-0.2,0-0.5,0-0.8
	c0-0.3,0-0.5,0-0.8c0-0.3,0-0.5,0-0.7c0-0.2,0-0.4,0-0.5H237l-5.6,8.4h-1.3V3.1z M236.8,0c0,0.5-0.2,0.8-0.3,1.2
	c-0.2,0.3-0.5,0.5-0.8,0.7c-0.4,0.2-0.8,0.2-1.4,0.2c-0.6,0-1.1-0.1-1.4-0.2c-0.4-0.2-0.6-0.4-0.8-0.7c-0.2-0.3-0.3-0.7-0.3-1.2h1.1
	c0.1,0.5,0.2,0.8,0.4,1c0.2,0.2,0.6,0.3,1.1,0.3c0.4,0,0.8-0.1,1-0.3c0.3-0.2,0.4-0.5,0.5-1H236.8z M1.1,30.1v-10H9v10H6.9v-8.2H3.2
	v8.2H1.1z M14.7,20.1c1.3,0,2.2,0.3,2.8,0.8c0.6,0.6,0.9,1.3,0.9,2.3c0,0.4-0.1,0.9-0.2,1.3c-0.1,0.4-0.3,0.7-0.6,1.1
	c-0.3,0.3-0.7,0.6-1.2,0.7c-0.5,0.2-1.1,0.3-1.8,0.3h-0.9v3.6h-2.1v-10H14.7z M14.6,21.8h-1v3h0.7c0.4,0,0.7-0.1,1-0.2
	c0.3-0.1,0.5-0.3,0.7-0.5c0.2-0.2,0.2-0.5,0.2-0.9c0-0.5-0.1-0.9-0.4-1.1C15.6,21.9,15.2,21.8,14.6,21.8z M29.4,25.1
	c0,0.8-0.1,1.5-0.3,2.1c-0.2,0.6-0.5,1.2-0.9,1.6c-0.4,0.5-0.9,0.8-1.5,1.1c-0.6,0.2-1.3,0.4-2.1,0.4c-0.8,0-1.5-0.1-2.1-0.4
	c-0.6-0.2-1.1-0.6-1.5-1.1c-0.4-0.5-0.7-1-0.9-1.6c-0.2-0.6-0.3-1.3-0.3-2.1c0-1,0.2-1.9,0.5-2.7c0.3-0.8,0.9-1.4,1.6-1.8
	c0.7-0.4,1.6-0.6,2.7-0.6c1.1,0,2,0.2,2.7,0.6c0.7,0.4,1.2,1,1.6,1.8C29.2,23.1,29.4,24,29.4,25.1z M22.1,25.1
	c0,0.7,0.1,1.3,0.3,1.8c0.2,0.5,0.5,0.9,0.8,1.2c0.4,0.3,0.9,0.4,1.4,0.4c0.6,0,1.1-0.1,1.5-0.4c0.4-0.3,0.6-0.7,0.8-1.2
	c0.2-0.5,0.3-1.1,0.3-1.8c0-1-0.2-1.9-0.6-2.5c-0.4-0.6-1-0.9-1.9-0.9c-0.6,0-1.1,0.1-1.5,0.4c-0.4,0.3-0.6,0.7-0.8,1.2
	C22.2,23.8,22.1,24.4,22.1,25.1z M37.2,19.9v1.2c1.1,0,2,0.2,2.6,0.6c0.6,0.4,1.1,0.8,1.4,1.4c0.3,0.6,0.4,1.2,0.4,1.8
	c0,0.4-0.1,0.9-0.2,1.3c-0.1,0.4-0.4,0.8-0.7,1.2c-0.3,0.4-0.8,0.7-1.4,0.9c-0.6,0.2-1.3,0.4-2.1,0.4v1.5h-1.9v-1.5
	c-0.9,0-1.6-0.1-2.2-0.4c-0.6-0.2-1-0.5-1.4-0.9c-0.3-0.4-0.6-0.8-0.7-1.2s-0.2-0.9-0.2-1.3c0-0.5,0.1-1,0.2-1.4
	c0.2-0.4,0.4-0.8,0.8-1.2c0.4-0.3,0.8-0.6,1.4-0.8c0.6-0.2,1.3-0.3,2.1-0.3v-1.2H37.2z M35.3,22.8c-0.6,0-1.1,0.1-1.4,0.3
	c-0.4,0.2-0.6,0.4-0.8,0.7c-0.2,0.3-0.2,0.6-0.2,1c0,0.4,0.1,0.8,0.3,1.1c0.2,0.3,0.4,0.6,0.8,0.7c0.4,0.2,0.8,0.3,1.4,0.3V22.8z
	 M37.2,22.8V27c0.6,0,1-0.1,1.4-0.3s0.6-0.4,0.8-0.7c0.2-0.3,0.3-0.7,0.3-1.1c0-0.4-0.1-0.7-0.2-1c-0.2-0.3-0.4-0.5-0.8-0.7
	C38.3,23,37.8,22.9,37.2,22.8z M49.3,30.1h-5.8v-10h5.8v1.7h-3.6V24H49v1.7h-3.4v2.6h3.6V30.1z M55.6,21.7c-0.4,0-0.8,0.1-1.1,0.2
	c-0.3,0.2-0.6,0.4-0.8,0.7c-0.2,0.3-0.4,0.7-0.5,1.1c-0.1,0.4-0.2,0.9-0.2,1.4c0,0.7,0.1,1.3,0.3,1.8c0.2,0.5,0.5,0.9,0.8,1.1
	c0.4,0.3,0.8,0.4,1.4,0.4c0.4,0,0.8,0,1.2-0.1c0.4-0.1,0.9-0.2,1.3-0.4v1.8c-0.4,0.2-0.9,0.3-1.3,0.4c-0.4,0.1-0.9,0.1-1.4,0.1
	c-1,0-1.9-0.2-2.5-0.6c-0.7-0.4-1.2-1-1.5-1.8c-0.3-0.8-0.5-1.7-0.5-2.7c0-0.8,0.1-1.4,0.3-2.1c0.2-0.6,0.5-1.2,0.9-1.6
	c0.4-0.5,0.9-0.8,1.5-1.1c0.6-0.3,1.3-0.4,2-0.4c0.5,0,1,0.1,1.5,0.2c0.5,0.1,1,0.3,1.4,0.5l-0.7,1.7c-0.4-0.2-0.8-0.3-1.1-0.5
	C56.4,21.8,56,21.7,55.6,21.7z M64.6,21.7c-0.4,0-0.8,0.1-1.1,0.2c-0.3,0.2-0.6,0.4-0.8,0.7c-0.2,0.3-0.4,0.7-0.5,1.1
	c-0.1,0.4-0.2,0.9-0.2,1.4c0,0.7,0.1,1.3,0.3,1.8c0.2,0.5,0.5,0.9,0.8,1.1c0.4,0.3,0.8,0.4,1.4,0.4c0.4,0,0.8,0,1.2-0.1
	c0.4-0.1,0.9-0.2,1.3-0.4v1.8c-0.4,0.2-0.9,0.3-1.3,0.4c-0.4,0.1-0.9,0.1-1.4,0.1c-1,0-1.9-0.2-2.5-0.6c-0.7-0.4-1.2-1-1.5-1.8
	c-0.3-0.8-0.5-1.7-0.5-2.7c0-0.8,0.1-1.4,0.3-2.1c0.2-0.6,0.5-1.2,0.9-1.6c0.4-0.5,0.9-0.8,1.5-1.1c0.6-0.3,1.3-0.4,2-0.4
	c0.5,0,1,0.1,1.5,0.2c0.5,0.1,1,0.3,1.4,0.5l-0.7,1.7c-0.4-0.2-0.8-0.3-1.1-0.5C65.3,21.8,64.9,21.7,64.6,21.7z M69.2,20.1h1.9v4.8
	c0,0.2,0,0.5,0,0.8c0,0.3,0,0.6,0,0.8c0,0.3,0,0.5,0,0.7c0,0.2,0,0.3,0,0.4h0l4.6-7.6h2.5v10h-1.9v-4.8c0-0.3,0-0.5,0-0.8
	c0-0.3,0-0.6,0-0.9c0-0.3,0-0.5,0-0.7c0-0.2,0-0.3,0-0.4h-0.1l-4.6,7.7h-2.6V20.1z M89.8,25.1c0,0.8-0.1,1.5-0.3,2.1
	c-0.2,0.6-0.5,1.2-0.9,1.6c-0.4,0.5-0.9,0.8-1.5,1.1c-0.6,0.2-1.3,0.4-2.1,0.4c-0.8,0-1.5-0.1-2.1-0.4c-0.6-0.2-1.1-0.6-1.5-1.1
	c-0.4-0.5-0.7-1-0.9-1.6c-0.2-0.6-0.3-1.3-0.3-2.1c0-1,0.2-1.9,0.5-2.7c0.3-0.8,0.9-1.4,1.6-1.8c0.7-0.4,1.6-0.6,2.7-0.6
	c1.1,0,2,0.2,2.7,0.6c0.7,0.4,1.2,1,1.6,1.8C89.7,23.1,89.8,24,89.8,25.1z M82.5,25.1c0,0.7,0.1,1.3,0.3,1.8
	c0.2,0.5,0.5,0.9,0.8,1.2c0.4,0.3,0.9,0.4,1.4,0.4c0.6,0,1.1-0.1,1.5-0.4c0.4-0.3,0.6-0.7,0.8-1.2c0.2-0.5,0.3-1.1,0.3-1.8
	c0-1-0.2-1.9-0.6-2.5c-0.4-0.6-1-0.9-1.9-0.9c-0.6,0-1.1,0.1-1.5,0.4c-0.4,0.3-0.7,0.7-0.8,1.2C82.6,23.8,82.5,24.4,82.5,25.1z
	 M100.1,30.1H98v-4.3h-4v4.3h-2.1v-10H94V24h4v-3.9h2.1V30.1z M108.7,30.1l-0.7-2.4h-3.6l-0.7,2.4h-2.3l3.5-10h2.6l3.5,10H108.7z
	 M107.5,25.9l-0.7-2.3c0-0.2-0.1-0.4-0.2-0.6c-0.1-0.2-0.1-0.5-0.2-0.7c-0.1-0.3-0.1-0.5-0.2-0.7c0,0.2-0.1,0.4-0.2,0.7
	c-0.1,0.3-0.2,0.5-0.2,0.8s-0.1,0.4-0.2,0.5l-0.7,2.3H107.5z M120.2,30.1h-2.1v-8.2h-2.4c-0.1,0.4-0.1,0.9-0.2,1.4
	c-0.1,0.5-0.1,1-0.2,1.5c-0.1,0.5-0.1,1-0.2,1.5c-0.1,0.5-0.1,0.9-0.2,1.2c-0.1,0.6-0.3,1.1-0.5,1.5c-0.2,0.4-0.5,0.7-0.8,0.9
	c-0.3,0.2-0.8,0.3-1.4,0.3c-0.2,0-0.4,0-0.5,0c-0.2,0-0.3-0.1-0.5-0.1v-1.7c0.1,0,0.2,0.1,0.4,0.1c0.1,0,0.2,0,0.4,0
	c0.2,0,0.3-0.1,0.5-0.2c0.1-0.1,0.2-0.3,0.3-0.6c0.1-0.3,0.2-0.7,0.3-1.2c0-0.2,0.1-0.5,0.2-1c0.1-0.4,0.1-0.9,0.2-1.5
	c0.1-0.6,0.2-1.2,0.3-1.8c0.1-0.7,0.2-1.4,0.3-2.1h6.3V30.1z M122.7,30.1v-10h2.1v3.8h0.8c0.9,0,1.7,0.1,2.3,0.4
	c0.6,0.3,1.1,0.6,1.3,1.1c0.3,0.5,0.4,1,0.4,1.6c0,1-0.3,1.8-1,2.3c-0.7,0.5-1.7,0.8-3.1,0.8H122.7z M124.8,28.3h0.7
	c0.6,0,1.1-0.1,1.5-0.3c0.4-0.2,0.6-0.6,0.6-1.1c0-0.4-0.1-0.6-0.3-0.8c-0.2-0.2-0.4-0.3-0.8-0.4c-0.3-0.1-0.7-0.1-1.2-0.1h-0.5
	V28.3z M139.8,30.1h-2.1v-4.3h-4v4.3h-2.1v-10h2.1V24h4v-3.9h2.1V30.1z M151.5,25.1c0,0.8-0.1,1.5-0.3,2.1c-0.2,0.6-0.5,1.2-0.9,1.6
	c-0.4,0.5-0.9,0.8-1.5,1.1c-0.6,0.2-1.3,0.4-2.1,0.4c-0.8,0-1.5-0.1-2.1-0.4c-0.6-0.2-1.1-0.6-1.5-1.1c-0.4-0.5-0.7-1-0.9-1.6
	c-0.2-0.6-0.3-1.3-0.3-2.1c0-1,0.2-1.9,0.5-2.7c0.3-0.8,0.9-1.4,1.6-1.8c0.7-0.4,1.6-0.6,2.7-0.6c1.1,0,2,0.2,2.7,0.6
	c0.7,0.4,1.2,1,1.6,1.8C151.3,23.1,151.5,24,151.5,25.1z M144.2,25.1c0,0.7,0.1,1.3,0.3,1.8c0.2,0.5,0.5,0.9,0.8,1.2
	c0.4,0.3,0.9,0.4,1.4,0.4c0.6,0,1.1-0.1,1.5-0.4c0.4-0.3,0.6-0.7,0.8-1.2c0.2-0.5,0.3-1.1,0.3-1.8c0-1-0.2-1.9-0.6-2.5
	c-0.4-0.6-1-0.9-1.9-0.9c-0.6,0-1.1,0.1-1.5,0.4c-0.4,0.3-0.7,0.7-0.8,1.2C144.2,23.8,144.2,24.4,144.2,25.1z M152.7,27.2v-1.7h3.7
	v1.7H152.7z M158,30.1v-10h7.9v10h-2.1v-8.2h-3.7v8.2H158z M174.2,30.1h-5.8v-10h5.8v1.7h-3.6V24h3.4v1.7h-3.4v2.6h3.6V30.1z
	 M184.1,20.1v8.2h1.3V33h-2v-2.9h-6.3V33h-2v-4.7h0.8c0.3-0.5,0.5-1.1,0.8-1.6c0.2-0.6,0.5-1.2,0.7-1.9c0.2-0.7,0.4-1.4,0.6-2.2
	c0.2-0.8,0.3-1.6,0.4-2.5H184.1z M182,21.9h-2c-0.1,0.5-0.2,1-0.3,1.5c-0.1,0.5-0.3,1.1-0.4,1.7c-0.2,0.6-0.3,1.1-0.5,1.7
	c-0.2,0.6-0.4,1.1-0.6,1.6h3.9V21.9z M193.1,30.1l-0.7-2.4h-3.6l-0.7,2.4h-2.3l3.5-10h2.6l3.5,10H193.1z M191.9,25.9l-0.7-2.3
	c0-0.2-0.1-0.4-0.2-0.6c-0.1-0.2-0.1-0.5-0.2-0.7c-0.1-0.3-0.1-0.5-0.2-0.7c0,0.2-0.1,0.4-0.2,0.7c-0.1,0.3-0.2,0.5-0.2,0.8
	c-0.1,0.2-0.1,0.4-0.2,0.5l-0.7,2.3H191.9z M203,20.1v1.8h-4.2v8.2h-2.1v-10H203z M213.6,25.1c0,0.8-0.1,1.5-0.3,2.1
	c-0.2,0.6-0.5,1.2-0.9,1.6c-0.4,0.5-0.9,0.8-1.5,1.1c-0.6,0.2-1.3,0.4-2.1,0.4s-1.5-0.1-2.1-0.4c-0.6-0.2-1.1-0.6-1.5-1.1
	c-0.4-0.5-0.7-1-0.9-1.6c-0.2-0.6-0.3-1.3-0.3-2.1c0-1,0.2-1.9,0.5-2.7c0.3-0.8,0.9-1.4,1.6-1.8c0.7-0.4,1.6-0.6,2.7-0.6
	c1.1,0,2,0.2,2.7,0.6c0.7,0.4,1.2,1,1.6,1.8C213.4,23.1,213.6,24,213.6,25.1z M206.3,25.1c0,0.7,0.1,1.3,0.3,1.8
	c0.2,0.5,0.5,0.9,0.8,1.2c0.4,0.3,0.9,0.4,1.4,0.4c0.6,0,1.1-0.1,1.5-0.4c0.4-0.3,0.6-0.7,0.8-1.2c0.2-0.5,0.3-1.1,0.3-1.8
	c0-1-0.2-1.9-0.6-2.5c-0.4-0.6-1-0.9-1.9-0.9c-0.6,0-1.1,0.1-1.5,0.4c-0.4,0.3-0.6,0.7-0.8,1.2C206.4,23.8,206.3,24.4,206.3,25.1z
	 M222,20.1v1.8h-4.2v8.2h-2.1v-10H222z M223.5,20.1h1.9v4.8c0,0.2,0,0.5,0,0.8c0,0.3,0,0.6,0,0.8c0,0.3,0,0.5,0,0.7
	c0,0.2,0,0.3,0,0.4h0l4.6-7.6h2.5v10h-1.9v-4.8c0-0.3,0-0.5,0-0.8c0-0.3,0-0.6,0-0.9c0-0.3,0-0.5,0-0.7c0-0.2,0-0.3,0-0.4h-0.1
	l-4.6,7.7h-2.5V20.1z M242.8,30.1h-2.1v-3.9c-0.6,0.2-1.1,0.4-1.6,0.5c-0.5,0.1-1,0.2-1.5,0.2c-0.9,0-1.7-0.2-2.2-0.7
	c-0.5-0.5-0.8-1.1-0.8-1.9v-4.1h2.1v3.5c0,0.5,0.1,0.8,0.3,1.1c0.2,0.2,0.6,0.4,1.1,0.4c0.4,0,0.8,0,1.2-0.1
	c0.4-0.1,0.8-0.2,1.3-0.4v-4.5h2.1V30.1z M251,30.1h-5.8v-10h5.8v1.7h-3.6V24h3.4v1.7h-3.4v2.6h3.6V30.1z M257.4,21.7
	c-0.4,0-0.8,0.1-1.1,0.2c-0.3,0.2-0.6,0.4-0.8,0.7c-0.2,0.3-0.4,0.7-0.5,1.1c-0.1,0.4-0.2,0.9-0.2,1.4c0,0.7,0.1,1.3,0.3,1.8
	c0.2,0.5,0.5,0.9,0.8,1.1c0.4,0.3,0.8,0.4,1.4,0.4c0.4,0,0.8,0,1.2-0.1c0.4-0.1,0.9-0.2,1.3-0.4v1.8c-0.4,0.2-0.9,0.3-1.3,0.4
	c-0.4,0.1-0.9,0.1-1.4,0.1c-1,0-1.9-0.2-2.5-0.6c-0.7-0.4-1.2-1-1.5-1.8c-0.3-0.8-0.5-1.7-0.5-2.7c0-0.8,0.1-1.4,0.3-2.1
	c0.2-0.6,0.5-1.2,0.9-1.6c0.4-0.5,0.9-0.8,1.5-1.1c0.6-0.3,1.3-0.4,2-0.4c0.5,0,1,0.1,1.5,0.2c0.5,0.1,1,0.3,1.4,0.5l-0.7,1.7
	c-0.4-0.2-0.8-0.3-1.1-0.5C258.1,21.8,257.7,21.7,257.4,21.7z M270.2,30.1h-2.4l-3.6-5.1v5.1H262v-10h2.1v4.8l3.6-4.8h2.3l-3.6,4.8
	L270.2,30.1z M271.5,20.1h1.9v4.8c0,0.2,0,0.5,0,0.8c0,0.3,0,0.6,0,0.8c0,0.3,0,0.5,0,0.7c0,0.2,0,0.3,0,0.4h0l4.6-7.6h2.5v10h-1.9
	v-4.8c0-0.3,0-0.5,0-0.8c0-0.3,0-0.6,0-0.9c0-0.3,0-0.5,0-0.7c0-0.2,0-0.3,0-0.4h-0.1l-4.6,7.7h-2.5V20.1z M283,20.1h1.9v4.8
	c0,0.2,0,0.5,0,0.8c0,0.3,0,0.6,0,0.8c0,0.3,0,0.5,0,0.7c0,0.2,0,0.3,0,0.4h0l4.6-7.6h2.5v10h-1.9v-4.8c0-0.3,0-0.5,0-0.8
	c0-0.3,0-0.6,0-0.9c0-0.3,0-0.5,0-0.7c0-0.2,0-0.3,0-0.4h-0.1l-4.6,7.7H283V20.1z M291,16.8c-0.1,0.5-0.2,0.9-0.4,1.3
	c-0.2,0.4-0.6,0.7-1,0.9c-0.5,0.2-1.1,0.3-1.9,0.3c-0.8,0-1.5-0.1-1.9-0.3c-0.5-0.2-0.8-0.5-1-0.8c-0.2-0.4-0.3-0.8-0.4-1.3h1.9
	c0,0.5,0.2,0.9,0.4,1c0.2,0.2,0.6,0.2,1.1,0.2c0.4,0,0.7-0.1,1-0.3c0.3-0.2,0.4-0.5,0.5-1H291z M9.1,37.1L6,44.2
	c-0.3,0.6-0.6,1.2-0.9,1.6c-0.3,0.5-0.7,0.8-1.2,1.1c-0.5,0.2-1.1,0.4-1.9,0.4c-0.2,0-0.5,0-0.8-0.1c-0.3,0-0.6-0.1-0.8-0.2v-1.8
	c0.2,0.1,0.5,0.2,0.7,0.2c0.3,0,0.5,0.1,0.8,0.1c0.3,0,0.6-0.1,0.8-0.2c0.2-0.1,0.3-0.2,0.5-0.4c0.1-0.2,0.2-0.4,0.3-0.6L0,37.1h2.2
	l1.9,4.3c0,0.1,0.1,0.2,0.2,0.4c0.1,0.2,0.1,0.3,0.2,0.5c0.1,0.2,0.1,0.3,0.2,0.4h0.1c0-0.1,0.1-0.3,0.1-0.4C4.9,42.1,5,41.9,5,41.8
	c0.1-0.2,0.1-0.3,0.2-0.5L7,37.1H9.1z M18.6,47.1h-2.1v-4.3h-4v4.3h-2.1v-10h2.1V41h4v-3.9h2.1V47.1z M21.1,37.1H23v4.8
	c0,0.2,0,0.5,0,0.8c0,0.3,0,0.6,0,0.8c0,0.3,0,0.5,0,0.7c0,0.2,0,0.3,0,0.4h0l4.6-7.6h2.5v10h-1.9v-4.8c0-0.3,0-0.5,0-0.8
	s0-0.6,0-0.9c0-0.3,0-0.5,0-0.7c0-0.2,0-0.3,0-0.4h-0.1l-4.6,7.7h-2.5V37.1z M32.6,37.1h3.1c1.3,0,2.3,0.2,3,0.6c0.7,0.4,1,1,1,2
	c0,0.4-0.1,0.7-0.2,1c-0.1,0.3-0.3,0.6-0.5,0.8c-0.2,0.2-0.5,0.3-0.8,0.4v0.1c0.3,0.1,0.6,0.2,0.9,0.4c0.3,0.2,0.5,0.4,0.6,0.7
	c0.2,0.3,0.2,0.7,0.2,1.3c0,0.6-0.1,1.1-0.4,1.6c-0.3,0.4-0.7,0.8-1.3,1c-0.5,0.2-1.2,0.3-2,0.3h-3.7V37.1z M34.8,41H36
	c0.6,0,1-0.1,1.3-0.3c0.2-0.2,0.4-0.5,0.4-0.9c0-0.4-0.1-0.7-0.4-0.8c-0.3-0.2-0.7-0.3-1.3-0.3h-1.1V41z M34.8,42.7v2.6h1.4
	c0.6,0,1.1-0.1,1.3-0.4c0.3-0.2,0.4-0.6,0.4-1c0-0.2-0.1-0.5-0.2-0.6c-0.1-0.2-0.3-0.3-0.6-0.4c-0.3-0.1-0.6-0.2-1.1-0.2H34.8z
	 M47.8,47.1h-5.8v-10h5.8v1.7h-3.6V41h3.4v1.7h-3.4v2.6h3.6V47.1z M53.1,37.1c1.3,0,2.2,0.3,2.8,0.8c0.6,0.6,0.9,1.3,0.9,2.3
	c0,0.4-0.1,0.9-0.2,1.3c-0.1,0.4-0.3,0.7-0.6,1.1c-0.3,0.3-0.7,0.6-1.2,0.7c-0.5,0.2-1.1,0.3-1.8,0.3H52v3.6h-2.1v-10H53.1z
	 M53,38.8h-1v3h0.7c0.4,0,0.7-0.1,1-0.2c0.3-0.1,0.5-0.3,0.7-0.5c0.2-0.2,0.2-0.5,0.2-0.9c0-0.5-0.1-0.9-0.4-1.1
	C54,38.9,53.6,38.8,53,38.8z M62.9,38.7c-0.4,0-0.8,0.1-1.1,0.2c-0.3,0.2-0.6,0.4-0.8,0.7c-0.2,0.3-0.4,0.7-0.5,1.1
	c-0.1,0.4-0.2,0.9-0.2,1.4c0,0.7,0.1,1.3,0.3,1.8c0.2,0.5,0.5,0.9,0.8,1.1c0.4,0.3,0.8,0.4,1.4,0.4c0.4,0,0.8,0,1.2-0.1
	c0.4-0.1,0.9-0.2,1.3-0.4v1.8c-0.4,0.2-0.9,0.3-1.3,0.4c-0.4,0.1-0.9,0.1-1.4,0.1c-1,0-1.9-0.2-2.5-0.6c-0.7-0.4-1.2-1-1.5-1.8
	c-0.3-0.8-0.5-1.7-0.5-2.7c0-0.8,0.1-1.4,0.3-2.1c0.2-0.6,0.5-1.2,0.9-1.6c0.4-0.5,0.9-0.8,1.5-1.1c0.6-0.3,1.3-0.4,2-0.4
	c0.5,0,1,0.1,1.5,0.2c0.5,0.1,1,0.3,1.4,0.5l-0.7,1.7c-0.4-0.2-0.7-0.3-1.1-0.5C63.7,38.8,63.3,38.7,62.9,38.7z M67.6,37.1h1.9v4.8
	c0,0.2,0,0.5,0,0.8c0,0.3,0,0.6,0,0.8c0,0.3,0,0.5,0,0.7c0,0.2,0,0.3,0,0.4h0l4.6-7.6h2.5v10h-1.9v-4.8c0-0.3,0-0.5,0-0.8
	s0-0.6,0-0.9c0-0.3,0-0.5,0-0.7c0-0.2,0-0.3,0-0.4h-0.1l-4.6,7.7h-2.6V37.1z M83,47.1h-2.1v-8.2h-2.7v-1.8h7.5v1.8H83V47.1z
	 M93,47.1h-5.8v-10H93v1.7h-3.6V41h3.4v1.7h-3.4v2.6H93V47.1z M99,47.1h-2.1v-8.2h-2.7v-1.8h7.5v1.8H99V47.1z"/>
</svg>
