<?xml version="1.0" encoding="utf-8"?>
<!-- Generator: Adobe Illustrator 26.0.0, SVG Export Plug-In . SVG Version: 6.00 Build 0)  -->
<svg version="1.1" xmlns="http://www.w3.org/2000/svg" xmlns:xlink="http://www.w3.org/1999/xlink" x="0px" y="0px"
	 viewBox="0 0 1113 1109" style="enable-background:new 0 0 1113 1109;" xml:space="preserve">
<style type="text/css">
	.st0{display:none;}
	.st1{display:inline;fill:#FFFFFF;}
	.st2{display:inline;fill-rule:evenodd;clip-rule:evenodd;fill:#185091;}
	.st3{fill:#FFFFFF;}
	.st4{fill:#175090;}
</style>
<g id="Слой_1" class="st0">
	<ellipse class="st1" cx="556.5" cy="554.3" rx="556.5" ry="554.3"/>
	<path class="st2" d="M707.3,386.5c5.5-2.3,11.5-3.1,17.4-2.3c5.9,0.8,11.5,3.2,16.2,6.8c4.7,3.7,8.3,8.5,10.5,14.1
		c2.2,5.5,2.8,11.6,1.8,17.4l-50.5,305c-4.9,29.4-37.3,46.3-64.4,31.6c-22.7-12.3-56.3-31.2-86.6-50.9
		c-15.1-9.9-61.5-41.5-55.8-63.9c4.9-19.2,82.8-91.5,127.3-134.4c17.5-16.9,9.5-26.6-11.1-11.1c-51.3,38.5-133.5,97.1-160.7,113.6
		c-24,14.5-36.5,17-51.5,14.5c-27.3-4.5-52.6-11.5-73.3-20.1c-27.9-11.5-26.6-49.8,0-60.9L707.3,386.5z"/>
</g>
<g id="Слой_2">
	<g>
		<ellipse class="st3" cx="556.5" cy="554.5" rx="556.3" ry="554.2"/>
		<g>
			<path class="st4" d="M398.1,913.1c-10.6-3.1-20.8-6.7-28.8-14.8c-11-11-16-24.4-16-39.8c0-19.8,0-39.7,0-59.5
				c0-182,0-364.1,0-546.1c0-23,8.5-41.1,29.7-51.2c7.3-3.5,16.1-5.4,24.2-5.4c99.4-0.4,198.9-0.3,298.3-0.2
				c32.2,0.1,53.9,22.9,53.9,56.1c0,162,0,324,0,485.9c0,37.1-0.8,74.2,0.3,111.3c0.8,29-9.1,54.6-45.1,63.7
				C609.1,913.1,503.6,913.1,398.1,913.1z M392.7,746.9c109.6,0,218.4,0,327.2,0c0-154.5,0-308.4,0-462.3c-109.3,0-218.2,0-327.2,0
				C392.7,438.9,392.7,592.7,392.7,746.9z M557,227.8c-23.3,0-46.7,0-70,0c-8.7,0-11.8,3.3-11.9,12.4c0,9,3.3,12.8,11.7,12.8
				c46.4,0,92.8,0,139.3,0c8.3,0,11.6-3.8,11.5-12.9c-0.1-8.8-3.2-12.2-11.3-12.2C603.2,227.8,580.1,227.8,557,227.8z M556.4,861.3
				c18.3,0,33.5-15.2,33.3-33.4c-0.2-18.1-14.9-32.7-33-32.9c-18.4-0.2-33.5,14.6-33.7,32.9C522.9,846.2,538.1,861.3,556.4,861.3z"
				/>
		</g>
	</g>
</g>
</svg>
