<?xml version="1.0" encoding="utf-8"?>
<!-- Generator: Adobe Illustrator 26.0.0, SVG Export Plug-In . SVG Version: 6.00 Build 0)  -->
<svg version="1.1" xmlns="http://www.w3.org/2000/svg" xmlns:xlink="http://www.w3.org/1999/xlink" x="0px" y="0px"
	 viewBox="0 0 135 40" style="enable-background:new 0 0 135 40;" xml:space="preserve">
<style type="text/css">
	.st0{display:none;}
	.st1{display:inline;}
	.st2{fill:#FFFFFF;}
	.st3{fill:#A6A6A6;}
	.st4{fill-rule:evenodd;clip-rule:evenodd;fill:#2B71F6;}
	.st5{fill:#2B71F6;}
</style>
<g id="Layer_1" class="st0">
	<g class="st1">
		<path class="st2" d="M134,35.3c0,2.1-1.7,3.8-3.8,3.8H4.7c-2.1,0-3.8-1.7-3.8-3.8V4.7c0-2.1,1.7-3.8,3.8-3.8h125.5
			c2.1,0,3.8,1.7,3.8,3.8L134,35.3L134,35.3z"/>
		<path class="st3" d="M130.2,40H4.7C2.1,40,0,37.9,0,35.3V4.7C0,2.1,2.1,0,4.7,0h125.5c2.6,0,4.7,2.1,4.7,4.7v30.5
			C134.9,37.9,132.8,40,130.2,40L130.2,40z"/>
		<path d="M134,35.3c0,2.1-1.7,3.8-3.8,3.8H4.7c-2.1,0-3.8-1.7-3.8-3.8V4.7c0-2.1,1.7-3.8,3.8-3.8h125.5c2.1,0,3.8,1.7,3.8,3.8
			L134,35.3L134,35.3z"/>
		<path class="st2" d="M30.1,19.8c0-3.2,2.6-4.8,2.8-4.9c-1.5-2.2-3.9-2.5-4.7-2.5c-2-0.2-3.9,1.2-4.9,1.2c-1,0-2.6-1.2-4.2-1.1
			c-2.1,0-4.1,1.3-5.2,3.2c-2.3,3.9-0.6,9.7,1.6,12.9c1.1,1.6,2.4,3.3,4,3.2c1.6-0.1,2.2-1,4.2-1c1.9,0,2.5,1,4.2,1
			c1.7,0,2.8-1.6,3.9-3.1c1.3-1.8,1.8-3.5,1.8-3.6C33.5,24.9,30.2,23.6,30.1,19.8z"/>
		<path class="st2" d="M26.9,10.3c0.9-1.1,1.5-2.6,1.3-4.1c-1.3,0.1-2.8,0.9-3.8,1.9c-0.8,0.9-1.5,2.5-1.3,3.9
			C24.6,12.2,26,11.4,26.9,10.3z"/>
		<g>
			<path class="st2" d="M53.7,31.5h-2.3l-1.2-3.9h-4.3l-1.2,3.9h-2.2l4.3-13.3h2.6L53.7,31.5z M49.8,26l-1.1-3.5
				c-0.1-0.4-0.3-1.2-0.7-2.5h0c-0.1,0.6-0.3,1.4-0.6,2.5L46.2,26H49.8z"/>
			<path class="st2" d="M64.7,26.6c0,1.6-0.4,2.9-1.3,3.9c-0.8,0.8-1.8,1.3-3,1.3c-1.3,0-2.2-0.5-2.7-1.4v5h-2.1V25.1
				c0-1,0-2.1-0.1-3.2h1.9l0.1,1.5h0c0.7-1.1,1.8-1.7,3.2-1.7c1.1,0,2.1,0.4,2.8,1.3C64.3,23.9,64.7,25.1,64.7,26.6z M62.5,26.7
				c0-0.9-0.2-1.7-0.6-2.3c-0.5-0.6-1.1-0.9-1.9-0.9c-0.5,0-1,0.2-1.4,0.5c-0.4,0.4-0.7,0.8-0.8,1.4c-0.1,0.3-0.1,0.5-0.1,0.6v1.6
				c0,0.7,0.2,1.3,0.6,1.8c0.4,0.5,1,0.7,1.7,0.7c0.8,0,1.4-0.3,1.9-0.9C62.3,28.5,62.5,27.7,62.5,26.7z"/>
			<path class="st2" d="M75.7,26.6c0,1.6-0.4,2.9-1.3,3.9c-0.8,0.8-1.8,1.3-3,1.3c-1.3,0-2.2-0.5-2.7-1.4v5h-2.1V25.1
				c0-1,0-2.1-0.1-3.2h1.9l0.1,1.5h0c0.7-1.1,1.8-1.7,3.2-1.7c1.1,0,2.1,0.4,2.8,1.3C75.3,23.9,75.7,25.1,75.7,26.6z M73.5,26.7
				c0-0.9-0.2-1.7-0.6-2.3c-0.5-0.6-1.1-0.9-1.9-0.9c-0.5,0-1,0.2-1.4,0.5c-0.4,0.4-0.7,0.8-0.8,1.4c-0.1,0.3-0.1,0.5-0.1,0.6v1.6
				c0,0.7,0.2,1.3,0.6,1.8c0.4,0.5,1,0.7,1.7,0.7c0.8,0,1.4-0.3,1.9-0.9C73.3,28.5,73.5,27.7,73.5,26.7z"/>
			<path class="st2" d="M88,27.8c0,1.1-0.4,2.1-1.2,2.8c-0.9,0.8-2.1,1.2-3.6,1.2c-1.4,0-2.6-0.3-3.4-0.8l0.5-1.8
				c0.9,0.6,2,0.8,3.1,0.8c0.8,0,1.4-0.2,1.9-0.5c0.4-0.4,0.7-0.8,0.7-1.5c0-0.5-0.2-1-0.6-1.4c-0.4-0.4-1-0.7-1.8-1
				c-2.3-0.9-3.5-2.1-3.5-3.8c0-1.1,0.4-2,1.2-2.7c0.8-0.7,1.9-1,3.3-1c1.2,0,2.2,0.2,3,0.6L87,20.4c-0.8-0.4-1.6-0.6-2.6-0.6
				c-0.8,0-1.3,0.2-1.8,0.6c-0.4,0.3-0.5,0.7-0.5,1.2c0,0.5,0.2,1,0.6,1.3c0.4,0.3,1,0.7,1.9,1c1.1,0.5,2,1,2.5,1.6
				C87.8,26.1,88,26.9,88,27.8z"/>
			<path class="st2" d="M95.1,23.5h-2.3v4.7c0,1.2,0.4,1.8,1.2,1.8c0.4,0,0.7,0,0.9-0.1l0.1,1.6c-0.4,0.2-1,0.2-1.7,0.2
				c-0.8,0-1.5-0.3-2-0.8c-0.5-0.5-0.7-1.4-0.7-2.6v-4.8h-1.4v-1.6h1.4v-1.8l2.1-0.6v2.4h2.3C95.1,21.9,95.1,23.5,95.1,23.5z"/>
			<path class="st2" d="M105.7,26.6c0,1.5-0.4,2.7-1.3,3.6c-0.9,1-2.1,1.5-3.5,1.5c-1.4,0-2.5-0.5-3.4-1.4c-0.8-0.9-1.3-2.1-1.3-3.5
				c0-1.5,0.4-2.7,1.3-3.7c0.9-0.9,2-1.4,3.5-1.4c1.4,0,2.5,0.5,3.4,1.4C105.3,24,105.7,25.2,105.7,26.6z M103.5,26.7
				c0-0.9-0.2-1.6-0.6-2.3c-0.4-0.8-1.1-1.1-1.9-1.1c-0.9,0-1.5,0.4-2,1.1c-0.4,0.6-0.6,1.4-0.6,2.3c0,0.9,0.2,1.6,0.6,2.3
				c0.5,0.8,1.1,1.1,1.9,1.1c0.8,0,1.5-0.4,1.9-1.2C103.3,28.3,103.5,27.6,103.5,26.7z"/>
			<path class="st2" d="M112.6,23.8c-0.2,0-0.4-0.1-0.7-0.1c-0.8,0-1.3,0.3-1.7,0.9c-0.4,0.5-0.5,1.1-0.5,1.9v5h-2.1v-6.6
				c0-1.1,0-2.1-0.1-3h1.9l0.1,1.8h0.1c0.2-0.6,0.6-1.1,1.1-1.5c0.5-0.3,1-0.5,1.5-0.5c0.2,0,0.4,0,0.5,0L112.6,23.8L112.6,23.8z"/>
			<path class="st2" d="M122.2,26.3c0,0.4,0,0.7-0.1,1h-6.4c0,0.9,0.3,1.7,0.9,2.2c0.5,0.4,1.2,0.7,2.1,0.7c0.9,0,1.8-0.1,2.6-0.5
				l0.3,1.5c-0.9,0.4-2,0.6-3.2,0.6c-1.5,0-2.7-0.4-3.5-1.3c-0.8-0.9-1.3-2.1-1.3-3.5c0-1.4,0.4-2.7,1.2-3.6c0.8-1,1.9-1.5,3.4-1.5
				c1.4,0,2.4,0.5,3.1,1.5C121.9,24,122.2,25.1,122.2,26.3z M120.1,25.7c0-0.6-0.1-1.2-0.4-1.6c-0.4-0.6-0.9-0.9-1.7-0.9
				c-0.7,0-1.3,0.3-1.7,0.9c-0.4,0.5-0.6,1-0.6,1.7L120.1,25.7L120.1,25.7z"/>
		</g>
		<g>
			<g>
				<path class="st2" d="M43.4,7.3c0.4-0.3,1.1-0.5,1.9-0.5c1.3,0,2.1,0.7,2.1,1.6c0,0.8-0.6,1.4-1.3,1.6v0c0.9,0.1,1.6,0.7,1.6,1.6
					c0,1.4-1.3,1.9-2.5,1.9c-0.6,0-1.3-0.1-1.9-0.4l0.3-0.9c0.3,0.2,1,0.4,1.5,0.4c0.8,0,1.3-0.4,1.3-1c0-0.8-0.8-1-1.6-1h-0.5V9.6
					h0.5c0.8,0,1.3-0.4,1.3-1c0-0.5-0.4-0.9-1.1-0.9c-0.5,0-1,0.2-1.4,0.4L43.4,7.3z"/>
				<path class="st2" d="M52.9,12.3c0,0.4,0,0.8,0.1,1.1h-1.1l-0.1-0.5h0c-0.3,0.4-0.8,0.6-1.4,0.6c-1,0-1.5-0.7-1.5-1.4
					c0-1.2,1.1-1.8,2.8-1.8v-0.1c0-0.3-0.1-0.8-1-0.8c-0.5,0-1,0.1-1.3,0.4L49.2,9c0.3-0.2,1-0.4,1.7-0.4c1.5,0,2,1,2,2L52.9,12.3
					L52.9,12.3z M51.7,11.1c-0.8,0-1.7,0.2-1.7,0.9c0,0.5,0.3,0.7,0.7,0.7c0.5,0,0.8-0.3,0.9-0.6c0-0.1,0-0.2,0-0.3V11.1z"/>
				<path class="st2" d="M57.8,8.7v0.9h-1.9v3.8h-1.2V8.7H57.8z"/>
				<path class="st2" d="M59.1,10.3c0-0.6,0-1.1,0-1.6h1l0.1,0.7h0c0.3-0.5,0.9-0.8,1.6-0.8c1.1,0,2,0.9,2,2.4
					c0,1.7-1.1,2.5-2.2,2.5c-0.6,0-1.1-0.3-1.3-0.6h0v2.4h-1.2L59.1,10.3L59.1,10.3z M60.3,11.5c0,0.1,0,0.2,0,0.3
					c0.1,0.5,0.5,0.8,1.1,0.8c0.8,0,1.2-0.6,1.2-1.6c0-0.8-0.4-1.5-1.2-1.5c-0.5,0-1,0.4-1.1,0.9c0,0.1,0,0.2,0,0.3
					C60.3,10.7,60.3,11.5,60.3,11.5z"/>
				<path class="st2" d="M66.1,8.7l0.8,2.5c0.1,0.3,0.2,0.6,0.3,0.9h0c0.1-0.3,0.2-0.6,0.3-0.9l0.7-2.5h1.3l-1.2,3.2
					c-0.7,1.8-1.1,2.6-1.6,3c-0.5,0.4-1,0.6-1.3,0.6l-0.3-1c0.2,0,0.4-0.2,0.7-0.3c0.2-0.1,0.5-0.4,0.7-0.7c0-0.1,0.1-0.2,0.1-0.2
					c0,0,0-0.1-0.1-0.2l-1.7-4.3L66.1,8.7L66.1,8.7z"/>
				<path class="st2" d="M71.2,10.6h0.6c0.7,0,1-0.3,1-0.6s-0.3-0.6-0.9-0.6c-0.4,0-0.8,0.1-1.2,0.3l-0.3-0.7
					c0.5-0.3,1.2-0.5,1.8-0.5c0.8,0,1.8,0.3,1.8,1.3c0,0.6-0.6,1-1,1.1v0c0.6,0.1,1.3,0.4,1.3,1.1c0,1.1-1.2,1.4-2.2,1.4
					c-0.6,0-1.2-0.1-1.7-0.4l0.3-0.8c0.3,0.2,0.8,0.3,1.3,0.3c0.7,0,1-0.3,1-0.6c0-0.5-0.5-0.7-1.2-0.7h-0.6L71.2,10.6L71.2,10.6z"
					/>
				<path class="st2" d="M76.9,8.7v1.7c0,0.7,0,1.3-0.1,1.9h0c0.3-0.6,0.4-0.9,0.6-1.4l1.2-2.2h1.4v4.7H79v-1.7c0-0.8,0-1.1,0.1-2h0
					c-0.2,0.6-0.4,0.9-0.6,1.4c-0.4,0.7-0.8,1.6-1.2,2.3h-1.4V8.7H76.9z"/>
				<path class="st2" d="M85.4,8.7v0.9H84v3.8h-1.2V9.6h-1.4V8.7H85.4z"/>
				<path class="st2" d="M87.5,11.4c0,0.9,0.7,1.2,1.5,1.2c0.6,0,0.9-0.1,1.3-0.2l0.2,0.8c-0.4,0.2-1,0.3-1.7,0.3
					c-1.5,0-2.4-0.9-2.4-2.4c0-1.3,0.8-2.5,2.3-2.5c1.5,0,2,1.3,2,2.3c0,0.2,0,0.4,0,0.5C90.7,11.4,87.5,11.4,87.5,11.4z M89.6,10.6
					c0-0.4-0.2-1.2-1-1.2c-0.7,0-1.1,0.7-1.1,1.2H89.6z"/>
				<path class="st2" d="M94.8,8.8c0.4-0.1,1.1-0.1,1.7-0.1c0.8,0,2.2,0.1,2.2,1.2c0,0.6-0.5,0.9-1,1v0c0.7,0.1,1.2,0.5,1.2,1.2
					c0,1.3-1.7,1.4-2.6,1.4c-0.6,0-1.2,0-1.5-0.1L94.8,8.8L94.8,8.8z M95.9,12.7c0.2,0,0.3,0,0.6,0c0.5,0,1.2-0.1,1.2-0.7
					c0-0.5-0.5-0.7-1.3-0.7h-0.5V12.7z M96,10.6h0.5c0.6,0,1.1-0.2,1.1-0.6c0-0.4-0.3-0.6-1-0.6c-0.2,0-0.4,0-0.6,0
					C96,9.5,96,10.6,96,10.6z"/>
			</g>
		</g>
	</g>
</g>
<g id="Слой_2">
	<path class="st2" d="M134.1,35.3c0,2.1-1.7,3.8-3.8,3.8H4.8c-2.1,0-3.8-1.7-3.8-3.8V4.7c0-2.1,1.7-3.8,3.8-3.8h125.5
		c2.1,0,3.8,1.7,3.8,3.8L134.1,35.3L134.1,35.3z"/>
	<g>
		<path class="st4" d="M26.1,33.8c-6.2,0-9.4,0-11.3-1.9c-1.9-1.9-1.9-5.1-1.9-11.3v-1.1c0-6.2,0-9.4,1.9-11.3
			c1.9-1.9,5.1-1.9,11.3-1.9h0h1.1l0,0c6.2,0,9.4,0,11.3,1.9c1.9,1.9,1.9,5.1,1.9,11.3v1.1c0,6.2,0,9.4-1.9,11.3
			c-1.9,1.9-5.1,1.9-11.3,1.9H26.1z"/>
		<path class="st2" d="M28.8,23.2c-0.7-0.2-1.3-0.8-1.3-1.6v-9c0-0.9,0.8-1.5,1.7-1.3l5.3,1.3c0.7,0.2,1.3,0.8,1.3,1.6v9
			c0,0.9-0.8,1.5-1.7,1.3L28.8,23.2z"/>
		<path class="st2" d="M18.7,27.3c-0.7-0.2-1.3-0.8-1.3-1.6v-9c0-0.9,0.8-1.5,1.7-1.3l5.3,1.3c0.7,0.2,1.3,0.8,1.3,1.6v9
			c0,0.9-0.8,1.5-1.7,1.3L18.7,27.3z"/>
		<path class="st2" d="M23.7,25.3c-0.7-0.2-1.3-0.8-1.3-1.6v-9c0-0.9,0.8-1.5,1.7-1.3l5.3,1.3c0.7,0.2,1.3,0.8,1.3,1.6v9
			c0,0.9-0.8,1.5-1.7,1.3L23.7,25.3z"/>
		<path class="st5" d="M27.2,26.1L27.2,26.1c-0.2-0.1-0.4-0.3-0.4-0.5l-0.2-6.9c-0.1-0.9-0.7-1.6-1.4-1.8c0,0-0.1,0-0.1,0l0,0
			c0,0,0,0.1,0,0.1c0.2,0.1,0.7,0.6,0.7,1.3l0,7.3L27.2,26.1z"/>
		<path class="st5" d="M32.3,24.1L32.3,24.1c-0.2-0.1-0.4-0.3-0.4-0.5l-0.2-6.9c-0.1-0.9-0.7-1.6-1.4-1.8c0,0-0.1,0-0.1,0l0,0
			c0,0,0,0.1,0,0.1c0.2,0.1,0.7,0.6,0.7,1.3l0,7.3L32.3,24.1z"/>
		<path d="M56.3,22.1c2.1-0.5,3.5-2.1,3.5-4.2c0-2.6-2.1-4.4-5-4.4h-5.2v13.9H52v-5.1h1.7l3.7,5.1h2.8L56.3,22.1z M54.8,15.6
			c1.5,0,2.5,0.9,2.5,2.2c0,1.3-1,2.2-2.5,2.2H52v-4.5H54.8z"/>
		<path d="M65.5,27.5c1.3,0,2.4-0.7,3.1-1.7l0.5,1.5h1.7V17.1h-2.3V23c0,1.5-1,2.5-2.3,2.5c-1.3,0-2.2-1-2.2-2.5v-5.9h-2.3v6.2
			C61.7,25.7,63.3,27.5,65.5,27.5z"/>
		<path d="M78.1,27.5c2.6,0,4.8-1.5,4.8-4c0-2.8-2.3-3.6-4.3-4.3c-1.5-0.5-2.9-1-2.9-2.2c0-1.1,1-1.7,2.2-1.7c1.3,0,2.1,0.7,2.6,1.8
			l2.3-0.4c-0.7-2.2-2.5-3.5-5-3.5c-2.5,0-4.6,1.5-4.6,3.9c0,2.8,2.3,3.6,4.3,4.2c1.5,0.5,2.9,1,2.9,2.2c0,1.1-1,1.7-2.4,1.7
			c-1.6,0-2.4-0.7-3.1-2l-2.3,0.4C73.3,26.1,75.5,27.5,78.1,27.5z"/>
		<path d="M89.1,25.4c-0.8,0-1.2-0.4-1.2-1.1v-5.2H91v-2H88v-3h-1.7l-0.6,3H84v2h1.7v5.2c0,2,1.2,3.1,3.4,3.1H91l0.2-2H89.1z"/>
		<path d="M97.8,27.5c3.2,0,5.5-2.2,5.5-5.3s-2.3-5.3-5.5-5.3c-3.2,0-5.5,2.2-5.5,5.3S94.5,27.5,97.8,27.5z M97.8,25.5
			c-1.9,0-3.1-1.3-3.1-3.3c0-1.9,1.3-3.3,3.1-3.3c1.9,0,3.1,1.3,3.1,3.3C100.9,24.1,99.6,25.5,97.8,25.5z"/>
		<path d="M107.6,27.3v-6.1c0-1.3,0.6-2,2-2h1.3l-0.2-2.2h-0.4c-1.2,0-2.1,0.3-2.8,1.5l-0.4-1.5h-1.7v10.2H107.6z"/>
		<path d="M122.2,22.1c0-3-2.2-5.2-5.4-5.2c-3.1,0-5.4,2.2-5.4,5.3c0,3.1,2.2,5.3,5.4,5.3c2.1,0,4.2-1,5-3l-2.1-0.4
			c-0.5,0.7-1.5,1.2-2.7,1.2c-1.7,0-2.9-1.1-3.1-2.6h8.3C122.1,22.6,122.2,22.4,122.2,22.1z M116.8,18.9c1.4,0,2.5,0.9,2.9,2.2H114
			C114.3,19.7,115.4,18.9,116.8,18.9z"/>
	</g>
</g>
</svg>
