<?xml version="1.0" encoding="utf-8"?>
<!-- Generator: Adobe Illustrator 26.0.0, SVG Export Plug-In . SVG Version: 6.00 Build 0)  -->
<svg version="1.1" id="Слой_1" xmlns="http://www.w3.org/2000/svg" xmlns:xlink="http://www.w3.org/1999/xlink" x="0px" y="0px"
	 viewBox="0 0 1920 1080" style="enable-background:new 0 0 1920 1080;" xml:space="preserve">
<style type="text/css">
	.st0{fill:#FFFFFF;}
</style>
<g>
	<path class="st0" d="M1028.7,1072.8c-45.8,0-91.6,0-137.3,0c-15.1-5.4-22.6-16.5-26.2-31.9c-8.1-35.1-17.3-69.9-25.5-105
		c-1.7-7.1-5.1-10.2-11.6-12.7c-16.8-6.5-33.4-13.4-49.7-20.9c-6.3-2.8-11-3-17.1,0.7c-25.3,15.7-51,30.8-76.6,46.1
		c-20.2,12.1-32.7,10.6-49.2-5.8c-26.3-26.2-52.5-52.4-78.7-78.7c-16.1-16.1-17.7-28.9-6.2-48.3c15.6-26.2,31.3-52.3,47.2-78.4
		c3-4.9,3.2-8.8,0.8-14.2c-7.8-17.3-15.2-34.9-22.1-52.6c-2.4-6.2-5.7-9.2-12.2-10.7c-36-8.6-72-17.6-107.9-26.6
		c-20.9-5.2-29.1-15.6-29.2-36.8c-0.1-37.8-0.1-75.6,0-113.4c0-22,8.1-32.3,29.4-37.7c35.9-9,71.9-18,107.9-26.6
		c6-1.4,9.4-3.9,11.6-10c5.6-15.3,11.8-30.3,18.4-45.1c2.4-5.4,2.2-9.3-0.8-14.3c-18-29.6-35.8-59.4-53.5-89.1
		c-11.6-19.4-10-32.5,5.9-48.4c26.2-26.3,52.4-52.5,78.7-78.7c16.7-16.7,28.8-18.1,49.1-6c28.5,17.1,56.9,34.4,85.7,51.1
		c3.6,2.1,9.9,2.2,14,0.6c18.7-7.3,36.9-15.8,55.5-23.1c6.2-2.5,9-6,10.5-12.4c8.6-36,17.6-72,26.5-107.9
		c5.1-20.3,15.6-28.8,36-28.8c38.5-0.1,77-0.1,115.5,0c20.5,0.1,31.2,8.5,36.2,28.7c9,36.3,18.1,72.6,26.7,108.9
		c1.5,6.2,4.4,9.2,10.2,11.4c16.8,6.5,33.4,13.4,49.8,20.8c6.3,2.9,11,3.1,17.2-0.7c26.5-16.4,53.4-32.2,80.1-48.2
		c21-12.6,32.8-11.2,49.9,5.9c26,26,52,52,78,78c16.8,16.8,18.3,28.9,6.3,49.1c-16.4,27.4-33,54.5-48.9,82.1
		c-2.1,3.7-2.3,9.9-0.7,14c6.6,17.5,14.5,34.4,21.3,51.8c2.4,6.3,6,9,12.3,10.5c35,8.3,69.9,17.5,104.9,25.6
		c15.4,3.6,26.5,11.1,31.8,26.2c0,45.8,0,91.6,0,137.4c-5.4,15.1-16.5,22.6-31.8,26.2c-35.1,8.1-69.9,17.3-104.9,25.6
		c-6.4,1.5-10,4.2-12.4,10.5c-6.4,16.8-13.4,33.4-20.8,49.7c-2.6,5.7-2.3,9.9,1,15.2c16.5,26.9,32.6,54,48.7,81
		c11.4,19.1,9.8,31.5-6,47.4c-26.4,26.6-52.9,53-79.4,79.5c-15.9,15.9-29,17.4-48.4,5.8c-26.5-15.8-53-31.5-79.2-47.7
		c-5.3-3.3-9.4-3.5-15.1-0.9c-17.6,8.1-35.4,15.6-53.5,22.7c-6.3,2.5-9,6-10.5,12.4c-8.3,35-17.4,69.9-25.5,104.9
		C1051.3,1056.3,1043.8,1067.4,1028.7,1072.8z M959.8,321.5c-120.2,0.2-218.4,98.7-218.2,218.7c0.2,120.2,98.6,218.5,218.7,218.3
		c120.2-0.2,218.4-98.7,218.2-218.7C1178.3,419.6,1079.8,321.3,959.8,321.5z"/>
</g>
</svg>
