<svg width="1113" height="1109" viewBox="0 0 1113 1109" fill="none" xmlns="http://www.w3.org/2000/svg">
<ellipse cx="556.467" cy="554.335" rx="556.467" ry="554.335" fill="white"/>
<path fill-rule="evenodd" clip-rule="evenodd" d="M707.314 386.491C712.814 384.185 718.835 383.389 724.749 384.188C730.663 384.986 736.254 387.348 740.94 391.03C745.626 394.711 749.236 399.576 751.394 405.119C753.553 410.661 754.18 416.679 753.211 422.545L702.729 727.584C697.832 757.008 665.423 773.882 638.334 759.226C615.675 746.964 582.02 728.072 551.748 708.36C536.612 698.493 490.247 666.896 495.946 644.412C500.842 625.188 578.748 552.947 623.265 509.997C640.738 493.123 632.77 483.389 612.136 498.91C560.874 537.448 478.628 596.052 451.428 612.549C427.433 627.095 414.924 629.578 399.966 627.095C372.677 622.571 347.369 615.564 326.713 607.028C298.8 595.498 300.158 557.271 326.691 546.14L707.314 386.491Z" fill="#185091"/>
</svg>
