<svg width="1113" height="1109" viewBox="0 0 1113 1109" fill="none" xmlns="http://www.w3.org/2000/svg">
<ellipse cx="556.508" cy="554.335" rx="556.467" ry="554.335" fill="white"/>
<path d="M768.032 695.832H717.26C698.051 695.832 692.264 680.333 657.83 646.008C627.736 617.117 615.026 613.524 607.414 613.524C596.885 613.524 594.014 616.407 594.014 630.842V676.342C594.014 688.648 590.007 695.854 557.732 695.854C526.421 693.759 496.057 684.283 469.142 668.207C442.227 652.132 419.531 629.916 402.923 603.391C363.489 554.499 336.052 497.116 322.792 435.805C322.792 428.221 325.686 421.348 340.198 421.348H390.948C403.992 421.348 408.688 427.135 413.808 440.505C438.448 512.746 480.495 575.586 497.567 575.586C504.111 575.586 506.96 572.703 506.96 556.45V482.036C504.801 448.089 486.705 445.228 486.705 432.944C486.934 429.703 488.422 426.679 490.853 424.514C493.285 422.348 496.468 421.213 499.726 421.348H579.501C590.408 421.348 594.014 426.758 594.014 439.752V540.197C594.014 551.04 598.688 554.632 601.983 554.632C608.527 554.632 613.557 551.04 625.555 539.11C651.271 507.868 672.281 473.06 687.923 435.782C689.524 431.307 692.551 427.476 696.542 424.874C700.532 422.271 705.268 421.041 710.026 421.37H760.798C776.023 421.37 779.251 428.953 776.023 439.774C757.557 480.981 734.707 520.097 707.867 556.45C702.391 564.765 700.21 569.089 707.867 578.845C712.898 586.428 730.705 601.24 742.657 615.32C760.064 632.616 774.51 652.616 785.439 674.523C789.801 688.626 782.523 695.832 768.032 695.832Z" fill="#185091"/>
</svg>
