<svg width="1114" height="1109" viewBox="0 0 1114 1109" fill="none" xmlns="http://www.w3.org/2000/svg">
<ellipse cx="556.988" cy="554.335" rx="556.467" ry="554.335" fill="white"/>
<path d="M512.47 620.864L627.993 554.344L512.47 487.823V620.864ZM769.781 447.246C772.674 457.668 774.678 471.637 776.013 489.376C777.571 507.114 778.239 522.414 778.239 535.718L779.574 554.344C779.574 602.903 776.013 638.603 769.781 661.441C764.216 681.397 751.306 694.258 731.273 699.801C720.812 702.684 701.669 704.679 672.288 706.01C643.351 707.562 616.864 708.227 592.379 708.227L556.988 709.557C463.724 709.557 405.629 706.01 382.702 699.801C362.669 694.258 349.759 681.397 344.195 661.441C341.301 651.02 339.298 637.05 337.962 619.312C336.404 601.573 335.736 586.273 335.736 572.969L334.401 554.344C334.401 505.784 337.962 470.085 344.195 447.246C349.759 427.29 362.669 414.43 382.702 408.886C393.164 406.004 412.306 404.008 441.688 402.678C470.624 401.125 497.112 400.46 521.596 400.46L556.988 399.13C650.252 399.13 708.347 402.678 731.273 408.886C751.306 414.43 764.216 427.29 769.781 447.246Z" fill="#185091"/>
</svg>
